<?xml version="1.0" encoding="utf-8"?>
<!-- Generator: Adobe Illustrator 26.0.1, SVG Export Plug-In . SVG Version: 6.00 Build 0)  -->
<svg version="1.1" id="Livello_1" xmlns="http://www.w3.org/2000/svg" xmlns:xlink="http://www.w3.org/1999/xlink" x="0px" y="0px"
	 viewBox="0 0 1280 1024" style="enable-background:new 0 0 1280 1024;" xml:space="preserve">
<style type="text/css">
	.st0{fill:#FFFFFF;}
	.st1{fill:url(#SVGID_1_);}
</style>
<g>
	<g>
		<path class="st0" d="M697.2,525.7v90.2c9.6-16.9,36.3-26.1,53.5-26.1c47.6,0,82.9,29.1,82.9,85.2c0,53.5-36,85.3-83.9,85.3
			c-19.8,0-40-6.6-52.5-26.1l-2.6,22.5h-37.7v-231L697.2,525.7L697.2,525.7z M699.9,675c0,29.4,21.8,47.9,47.3,47.9
			c25.8,0,46.3-19.5,46.3-47.9c0-29.4-20.5-47.6-46.3-47.6C721.7,627.4,699.9,646.6,699.9,675z"/>
		<path class="st0" d="M983.4,756.6v-85.3c0-24.8-13.5-43.6-39.3-43.6c-24.8,0-41.6,20.8-41.6,45.6v83.3h-40V593.4h36l2.6,22.1
			c16.5-16.2,33-24.5,53.5-24.5c38.3,0,69.1,28.7,69.1,80v85.6H983.4z"/>
		<path class="st0" d="M1098.7,525.7v90.2c9.6-16.9,36.3-26.1,53.5-26.1c47.6,0,82.9,29.1,82.9,85.2c0,53.5-36,85.3-83.9,85.3
			c-19.8,0-40-6.6-52.5-26.1l-2.6,22.5h-37.7v-231L1098.7,525.7L1098.7,525.7z M1101.3,675c0,29.4,21.8,47.9,47.3,47.9
			c25.8,0,46.3-19.5,46.3-47.9c0-29.4-20.5-47.6-46.3-47.6C1123.1,627.4,1101.3,646.6,1101.3,675z"/>
	</g>
	<g>
		<path class="st0" d="M109.6,279.5v90.2c9.6-16.9,36.3-26.1,53.5-26.1c47.6,0,82.9,29.1,82.9,85.3c0,53.5-36,85.3-83.9,85.3
			c-19.8,0-40-6.6-52.5-26.1l-2.6,22.5H69.3v-231h40.3V279.5z M112.2,428.9c0,29.4,21.8,47.9,47.3,47.9c25.8,0,46.3-19.5,46.3-47.9
			c0-29.4-20.5-47.6-46.3-47.6C134,381.3,112.2,400.4,112.2,428.9z"/>
		<path class="st0" d="M437.7,429.2c0,46.9-32.1,84.9-84.9,84.9s-84.6-38-84.6-84.9c0-46.6,32.4-84.9,84.3-84.9
			C404.3,344.3,437.7,382.6,437.7,429.2z M308.5,429.2c0,24.8,14.9,47.9,44.3,47.9s44.3-23.1,44.3-47.9c0-24.5-17.2-48.2-44.3-48.2
			C323.7,380.9,308.5,404.7,308.5,429.2z"/>
		<path class="st0" d="M627.4,429.2c0,46.9-32.1,84.9-84.9,84.9s-84.6-38-84.6-84.9c0-46.6,32.4-84.9,84.3-84.9
			C594,344.3,627.4,382.6,627.4,429.2z M498.2,429.2c0,24.8,14.9,47.9,44.3,47.9s44.3-23.1,44.3-47.9c0-24.5-17.2-48.2-44.3-48.2
			C513.4,380.9,498.2,404.7,498.2,429.2z"/>
		<path class="st0" d="M695.1,279.5v231h-40v-231H695.1z"/>
	</g>
	<g>
		
			<linearGradient id="SVGID_1_" gradientUnits="userSpaceOnUse" x1="524.8126" y1="266.7001" x2="524.8126" y2="489.802" gradientTransform="matrix(1 0 0 -1 0 1024)">
			<stop  offset="0" style="stop-color:#FBB03B"/>
			<stop  offset="0.4162" style="stop-color:#F15A24"/>
			<stop  offset="0.8659" style="stop-color:#FF004F"/>
		</linearGradient>
		<path class="st1" d="M611.6,546.8c-19.5-16.3-46-16.8-67.6-1.4c-5.6,4-10.8,8.5-15.8,12.8c-1.2,1-2.4,2.1-3.6,3.1
			c-0.7-0.7-1.5-1.4-2.3-2.1c-4.1-3.8-8.5-7.7-13.1-11.2c-14.3-10.9-29.2-15.4-44.3-13.3c-16.1,2.2-29.7,11.2-37.3,24.6
			c-7.9,13.7-8.6,30.5-2.2,46.1c5.8,14,12.6,28.8,22,47.9c2.4,4.9,4.8,9.8,7.2,14.7c10.8,22.2,22.1,45.2,34.3,67.3
			c7.5,13.7,20.7,21.9,35.2,22h0.3c14.8,0,28.4-8.3,36.4-22.2c7.3-12.7,13.8-25.9,18.6-35.9l4.8-10c13.2-27.2,26.7-55.4,39.5-83.4
			C633.3,585.1,628.3,560.7,611.6,546.8z M510.2,623.6c3.3-7.6,7.5-14.9,11.9-22.7c0.8-1.3,1.6-2.7,2.3-4.1
			c9.8,13.8,17.8,26.2,18,41.8c0.1,9.7-6.2,16.2-16.4,17c-9.9,0.8-17.7-5.1-18.5-14C507,635.3,508,628.6,510.2,623.6z M602.5,596.8
			c-11.4,25.2-23.7,50.5-35.5,74.9c-3.2,6.5-6.4,13.1-9.5,19.6c-4.4,9.1-9.2,18.2-13.9,27l-2,3.7c-4.1,7.8-9.4,11.4-16.6,11.5
			c-7.5,0-13.1-3.6-16.9-11.2c-16.5-33.1-32.8-66.1-52.1-105.3c-3.1-6.4-6.2-13.2-9.3-20.7c-5.1-12.3-3.6-22.4,4.4-31.1
			c5.5-5.9,12-8.9,19.4-8.9c3.6,0,7.4,0.7,11.5,2.1c11.3,3.9,20,12,27.2,19.8c-1.1,1.7-2.2,3.4-3.4,5.1c-3.9,5.9-7.9,11.9-11.4,18.1
			c-5.9,10.4-13.3,26.3-9.9,45c3.7,20.1,22.1,33.7,43.7,32.2c20.7-1.4,36.5-17.4,37.6-37.9c0.9-18.1-6.8-33.3-12.7-43.2
			c-3.2-5.3-6.7-10.4-10.2-15.4c-0.9-1.2-1.8-2.5-2.6-3.8c9.6-10.1,19.9-19.8,34.3-21.6c10.6-1.3,20,2.4,25.8,10.3
			C606.4,575.4,607.2,586.5,602.5,596.8z"/>
	</g>
</g>
</svg>
