<?xml version="1.0" encoding="utf-8"?>
<!-- Generator: Adobe Illustrator 26.0.1, SVG Export Plug-In . SVG Version: 6.00 Build 0)  -->
<svg version="1.1" id="Livello_1" xmlns="http://www.w3.org/2000/svg" xmlns:xlink="http://www.w3.org/1999/xlink" x="0px" y="0px"
	 viewBox="0 0 1188 504" style="enable-background:new 0 0 1188 504;" xml:space="preserve">
<style type="text/css">
	.st0{fill:#1A1A1A;}
	.st1{fill:url(#SVGID_1_);}
</style>
<g>
	<g>
		<path class="st0" d="M636.2,258.7v90.2c9.6-16.9,36.3-26.1,53.5-26.1c47.6,0,82.9,29.1,82.9,85.2c0,53.5-36,85.3-83.9,85.3
			c-19.8,0-40-6.6-52.5-26.1l-2.6,22.5h-37.7v-231H636.2z M638.9,408c0,29.4,21.8,47.9,47.3,47.9c25.8,0,46.3-19.5,46.3-47.9
			c0-29.4-20.5-47.6-46.3-47.6C660.7,360.4,638.9,379.6,638.9,408z"/>
		<path class="st0" d="M922.4,489.6v-85.3c0-24.8-13.5-43.6-39.3-43.6c-24.8,0-41.6,20.8-41.6,45.6v83.3h-40V326.4h36l2.6,22.1
			c16.5-16.2,33-24.5,53.5-24.5c38.3,0,69.1,28.7,69.1,80v85.6H922.4z"/>
		<path class="st0" d="M1037.7,258.7v90.2c9.6-16.9,36.3-26.1,53.5-26.1c47.6,0,82.9,29.1,82.9,85.2c0,53.5-36,85.3-83.9,85.3
			c-19.8,0-40-6.6-52.5-26.1l-2.6,22.5h-37.7v-231H1037.7z M1040.3,408c0,29.4,21.8,47.9,47.3,47.9c25.8,0,46.3-19.5,46.3-47.9
			c0-29.4-20.5-47.6-46.3-47.6C1062.1,360.4,1040.3,379.6,1040.3,408z"/>
	</g>
	<g>
		<path class="st0" d="M48.6,12.5v90.2c9.6-16.9,36.3-26.1,53.5-26.1c47.6,0,82.9,29.1,82.9,85.3c0,53.5-36,85.3-83.9,85.3
			c-19.8,0-40-6.6-52.5-26.1l-2.6,22.5H8.3v-231H48.6z M51.2,161.9c0,29.4,21.8,47.9,47.3,47.9c25.8,0,46.3-19.5,46.3-47.9
			c0-29.4-20.5-47.6-46.3-47.6C73,114.3,51.2,133.4,51.2,161.9z"/>
		<path class="st0" d="M376.7,162.2c0,46.9-32.1,84.9-84.9,84.9s-84.6-38-84.6-84.9c0-46.6,32.4-84.9,84.3-84.9
			C343.3,77.3,376.7,115.6,376.7,162.2z M247.5,162.2c0,24.8,14.9,47.9,44.3,47.9s44.3-23.1,44.3-47.9c0-24.5-17.2-48.2-44.3-48.2
			C262.7,113.9,247.5,137.7,247.5,162.2z"/>
		<path class="st0" d="M566.4,162.2c0,46.9-32.1,84.9-84.9,84.9s-84.6-38-84.6-84.9c0-46.6,32.4-84.9,84.3-84.9
			C533,77.3,566.4,115.6,566.4,162.2z M437.2,162.2c0,24.8,14.9,47.9,44.3,47.9s44.3-23.1,44.3-47.9c0-24.5-17.2-48.2-44.3-48.2
			C452.4,113.9,437.2,137.7,437.2,162.2z"/>
		<path class="st0" d="M634.1,12.5v231h-40v-231H634.1z"/>
	</g>
	<g>
		<linearGradient id="SVGID_1_" gradientUnits="userSpaceOnUse" x1="463.8175" y1="490.3216" x2="463.8175" y2="267.1757">
			<stop  offset="0" style="stop-color:#FBB03B"/>
			<stop  offset="0.4162" style="stop-color:#F15A24"/>
			<stop  offset="0.8659" style="stop-color:#FF004F"/>
		</linearGradient>
		<path class="st1" d="M550.6,279.8c-19.5-16.3-46-16.8-67.6-1.4c-5.6,4-10.8,8.5-15.8,12.8c-1.2,1-2.4,2.1-3.6,3.1
			c-0.7-0.7-1.5-1.4-2.3-2.1c-4.1-3.8-8.5-7.7-13.1-11.2c-14.3-10.9-29.2-15.4-44.3-13.3c-16.1,2.2-29.7,11.2-37.3,24.6
			c-7.9,13.7-8.6,30.5-2.2,46.1c5.8,14,12.6,28.8,22,47.9c2.4,4.9,4.8,9.8,7.2,14.7c10.8,22.2,22.1,45.2,34.3,67.3
			c7.5,13.7,20.7,21.9,35.2,22h0.3c14.8,0,28.4-8.3,36.4-22.2c7.3-12.7,13.8-25.9,18.6-35.9l4.8-10c13.2-27.2,26.7-55.4,39.5-83.4
			C572.3,318.1,567.3,293.7,550.6,279.8z M449.2,356.6c3.3-7.6,7.5-14.9,11.9-22.7c0.8-1.3,1.6-2.7,2.3-4.1
			c9.8,13.8,17.8,26.2,18,41.8c0.1,9.7-6.2,16.2-16.4,17c-9.9,0.8-17.7-5.1-18.5-14C446,368.3,447,361.6,449.2,356.6z M541.5,329.8
			c-11.4,25.2-23.7,50.5-35.5,74.9c-3.2,6.5-6.4,13.1-9.5,19.6c-4.4,9.1-9.2,18.2-13.9,27l-2,3.7c-4.1,7.8-9.4,11.4-16.6,11.5
			c-7.5,0-13.1-3.6-16.9-11.2c-16.5-33.1-32.8-66.1-52.1-105.3c-3.1-6.4-6.2-13.2-9.3-20.7c-5.1-12.3-3.6-22.4,4.4-31.1
			c5.5-5.9,12-8.9,19.4-8.9c3.6,0,7.4,0.7,11.5,2.1c11.3,3.9,20,12,27.2,19.8c-1.1,1.7-2.2,3.4-3.4,5.1c-3.9,5.9-7.9,11.9-11.4,18.1
			c-5.9,10.4-13.3,26.3-9.9,45c3.7,20.1,22.1,33.7,43.7,32.2c20.7-1.4,36.5-17.4,37.6-37.9c0.9-18.1-6.8-33.3-12.7-43.2
			c-3.2-5.3-6.7-10.4-10.2-15.4c-0.9-1.2-1.8-2.5-2.6-3.8c9.6-10.1,19.9-19.8,34.3-21.6c10.6-1.3,20,2.4,25.8,10.3
			C545.4,308.4,546.2,319.5,541.5,329.8z"/>
	</g>
</g>
</svg>
