<?xml version="1.0" encoding="utf-8"?>
<!-- Generator: Adobe Illustrator 26.0.1, SVG Export Plug-In . SVG Version: 6.00 Build 0)  -->
<svg version="1.1" id="Livello_1" xmlns="http://www.w3.org/2000/svg" xmlns:xlink="http://www.w3.org/1999/xlink" x="0px" y="0px"
	 viewBox="0 0 413.4 396.1" style="enable-background:new 0 0 413.4 396.1;" xml:space="preserve">
<style type="text/css">
	.st0{fill:url(#SVGID_1_);}
	.st1{fill:url(#SVGID_00000004539396048315414600000007495648983652760470_);}
	.st2{fill:url(#SVGID_00000115499527844802479080000015472458626062257031_);}
</style>
<linearGradient id="SVGID_1_" gradientUnits="userSpaceOnUse" x1="207.148" y1="1032.8247" x2="207.148" y2="679.5139">
	<stop  offset="0" style="stop-color:#FFD000"/>
	<stop  offset="0.2237" style="stop-color:#EC9817"/>
	<stop  offset="0.4918" style="stop-color:#D65C30"/>
	<stop  offset="0.7201" style="stop-color:#C72F43"/>
	<stop  offset="0.8966" style="stop-color:#BE144E"/>
	<stop  offset="1" style="stop-color:#BA0A52"/>
</linearGradient>
<path class="st0" d="M273.3,709.7c0.1-0.4,0.3-0.9,0.4-1.3c0.6-6.9,1.1-13.9,1.6-20.8c0.1-1.7,0.4-3.5,0.7-5.2
	c0.3-1.8,1.4-2.8,2.9-2.9c1.5,0,2.7,1,3,2.8c0.3,1.6,0.6,3.2,0.7,4.8c0.6,6.8,1,13.6,1.6,20.4c0.6,6.7,1.4,13.3,2,20
	c0.3,2.8,0.6,5.7,0.8,8.5c0.3,4.6,0.8,9.2,0.8,13.8c0.1,13.2,0.1,26.4,0,39.7c0,2.5,0.7,4.1,2.7,5.7c3.6,2.8,6.9,6.1,10.3,9.2
	c3.4,3.1,6.8,6.1,10.6,9.5c0.1-1.2,0.3-2.1,0.3-3c0-8.7,0.1-17.5,0-26.2c-0.1-7.1,0.6-14.1,1.4-21.2c0.8-6.8,1.1-13.6,1.7-20.4
	c0.6-6.8,1.4-13.6,2.1-20.4c0.3-3.2,0.5-6.4,0.9-9.7c0.3-2.4,1.3-3.5,3-3.5c1.7,0,2.7,1.2,3,3.6c0.5,5.4,1,10.9,1.5,16.3
	c0.7,6.7,1.4,13.3,2.1,20c0.3,3.3,0.5,6.7,0.9,10c2.5,22,1.2,44.1,1.5,66.1c0,0.9,0.1,1.7,0,2.6c-0.1,1.5,0.4,2.6,1.5,3.6
	c7.3,6.4,14.5,12.9,22.1,19.6c0.1-1.3,0.3-2.2,0.3-3.1c0-6.9,0.1-13.7,0-20.6c-0.1-7.5,0.5-14.9,1.4-22.3c0.8-6.8,1.1-13.6,1.7-20.4
	c0.6-6.8,1.4-13.6,2.1-20.4c0.3-3.2,0.5-6.4,0.9-9.7c0.3-2.4,1.4-3.5,3.1-3.5c1.7,0,2.7,1.2,3,3.6c0.5,5.4,1,10.9,1.5,16.3
	c0.3,3.4,0.7,6.8,1.1,10.7c0.5-0.7,0.8-0.9,0.9-1.2c0.6-6.9,1.1-13.9,1.7-20.8c0.2-2,0.4-4,0.8-5.9c0.3-1.7,1.6-2.8,3.1-2.7
	c1.5,0.1,2.7,1.1,2.9,2.9c0.6,4.7,1,9.4,1.5,14.1c0.7,7.7,1.5,15.3,2.1,23c0.3,3.8,0.6,7.7,0.9,11.5c0.4,4.2,0.8,8.4,1.2,12.6
	c0.1,1.5,0.2,3,0.2,4.5c0,69.2,0,138.5,0,207.7c0,4.6-0.7,5.1-5.6,5.1c-64.4,0-128.7,0-193.1,0c-49.4,0-98.8,0-148.2,0
	c-6.3,0-6.5-0.2-6.5-6.6c0-68,0-136,0.1-204c0-5.4,0.8-10.9,1.3-16.3c0.3-3.2,0.6-6.4,0.9-9.7c0.5-6.8,1-13.6,1.6-20.4
	c0.6-6.9,1.4-13.8,2.1-20.8c0.1-0.5,0-1,0.2-1.5c0.4-1.3,1.3-2.2,2.7-2.2c1.6-0.1,2.7,0.8,3,2.3c0.4,1.6,0.6,3.2,0.8,4.8
	c0.3,3.8,0.6,7.7,0.9,11.5c0.3,3.8,0.7,7.6,1.1,12.1c0.6-0.8,0.9-1.1,1-1.4c0.6-6.8,1.1-13.6,1.7-20.4c0.2-2.1,0.4-4.2,0.8-6.3
	c0.3-1.5,1.2-2.4,2.8-2.5c1.5-0.1,2.8,1,3,2.7c0.4,2.3,0.6,4.7,0.8,7c0.4,4.4,0.9,8.9,1.3,13.3c0.3,3,0.6,5.9,0.8,8.9
	c0.6,6.8,0.8,13.7,1.7,20.4c2,15.3,1.2,30.6,1.4,45.9c0,0.4,0.1,0.7,0.2,1.6c2.6-2.2,5-4.2,7.4-6.3c4.7-4.1,9.2-8.3,14-12.4
	c1.8-1.5,2.4-3.2,2.4-5.5c-0.1-15.5-0.2-30.9,0-46.4c0.1-5.6,0.8-11.1,1.3-16.7c0.3-3.2,0.6-6.4,0.9-9.7c0.5-6.8,1-13.6,1.6-20.4
	c0.6-6.8,1.4-13.6,2.1-20.4c0.1-0.5,0-1,0.1-1.5c0.3-1.5,1.3-2.4,2.8-2.5c1.5-0.1,2.7,1,3.1,2.7c0.3,1.6,0.6,3.2,0.7,4.8
	c0.6,6.8,1,13.6,1.6,20.4c0.6,6.7,1.4,13.3,2,20c0.3,3,0.6,5.9,0.8,8.9c0.3,5.3,0.7,10.7,0.8,16c0.1,9.1,0,18.2,0,27.3
	c0,1.2,0,2.5,0,4.2c0.8-0.5,1.3-0.8,1.7-1.1c6.9-6.1,13.8-12.3,20.5-18.5c0.8-0.7,1.2-2,1.6-3.2c0.2-0.8,0.1-1.7,0.1-2.6
	c0-11.2,0.1-22.5,0-33.7c-0.1-7.1,0.5-14.2,1.4-21.2c0.5-3.8,0.6-7.7,0.9-11.5c0.6-6.9,1.4-13.8,2-20.8c0.4-3.7,0.6-7.4,0.9-11.1
	c0.2-2.6,0.4-5.2,0.8-7.8c0.2-1.8,1.5-2.8,2.9-2.8c1.5,0,2.8,1,3,2.8c0.6,5.2,1.1,10.4,1.6,15.6c0.4,3.9,0.7,7.8,1.1,12.2
	c0.5-0.6,0.9-0.8,0.9-1c0.3-4,0.6-7.9,1-11.9c0.4-4.8,0.9-9.6,1.5-14.5c0.2-2.1,1.4-3.2,3-3.1c1.6,0,2.7,1.1,3,3.2
	c0.6,5.3,1,10.6,1.5,16c0.4,4.1,0.9,8.1,1.3,12.2c0.3,3,0.6,5.9,0.8,8.9c0.6,6.7,1.2,13.4,1.6,20.1c0.4,8,0.5,15.9,0.8,23.9
	c0,0.4,0.1,0.7,0.3,1.5c1.7-1.3,3.3-2.4,4.7-3.7c6-5.4,12-10.9,18-16.3c8.3-7.5,16.7-14.9,25.2-22.3c2.5-2.2,2.9-2.1,5.4-0.1
	c3.2,2.6,6.3,5.3,9.3,8c6.1,5.5,12.1,11.1,18.2,16.6c6.6,5.9,13.2,11.7,20.2,18c0.2-1.2,0.3-1.9,0.4-2.7c0-3,0.1-6,0-9
	c-0.1-6.7,0.5-13.4,1.4-20.1c0.5-3.8,0.6-7.7,0.9-11.5c0.4-4.2,0.9-8.4,1.3-12.6c0.3-3.3,0.6-6.7,0.9-10c0.5-5.4,1-10.9,1.5-16.3
	c0-0.5,0-1,0.2-1.5c0.5-1.3,1.3-2.1,2.7-2.2c1.6,0,2.7,0.8,3,2.3c0.4,1.9,0.7,3.9,0.8,5.9c0.6,6.9,1.1,13.9,1.6,20.8
	c0,0.4,0.2,0.7,0.3,1C272.9,709.6,273.1,709.7,273.3,709.7z M207.1,728.8c-4.3,3.7-8.5,7.4-12.7,11.1c-8.4,7.6-16.8,15.2-25.2,22.8
	c-3.3,3-6.7,6-10.2,8.8c-2,1.6-2.8,3.5-2.8,6.1c0.1,81.7,0.1,163.4,0.1,245.1c0,1.2,0.1,2.4,0.2,3.8c1.9,0,3.6,0,5.7,0
	c0-1.7,0-3.2,0-4.6c0-19.1,0-38.2,0-57.2c0-12.9,4.4-23.8,13.7-32.8c11.8-11.4,25.8-15.2,41.6-11.7c19.7,4.4,34.8,22.9,34.6,43.7
	c-0.1,19.5,0,38.9,0,58.4c0,1.4,0.1,2.9,0.2,4.6c2.2-0.1,3.8-0.2,5.7-0.3c0-1.6,0-2.7,0-3.8c0-81.7,0-163.4,0.1-245.1
	c0-2.6-0.8-4.4-2.8-6.1c-8.4-7.3-16.6-14.6-24.9-22c-6.1-5.5-12.1-11.1-18.2-16.6C210.6,731.5,208.9,730.3,207.1,728.8z
	 M180.5,967.2c0,19.9,0,39.5,0,59.3c17.9,0,35.5,0,53.3,0c0-19.9,0-39.5,0-59.3C216,967.2,198.5,967.2,180.5,967.2z M137.8,1026.5
	c0.2-0.6,0.4-0.9,0.4-1.2c0-90.2,0.1-180.4,0.1-270.5c0-0.9-0.1-1.7-0.2-2.6c0-0.1-0.1-0.2-0.2-0.3c-0.1-0.1-0.2-0.2-0.2-0.3
	c-1.6,0-3.2,0-4.6,0c-0.2,0.4-0.5,0.7-0.5,0.9c-0.1,90.2-0.1,180.3-0.1,270.5c0,1,0.1,2,0.2,3c0,0.1,0.1,0.2,0.2,0.3
	c0.1,0.1,0.2,0.2,0.2,0.3C134.6,1026.5,136.2,1026.5,137.8,1026.5z M144.8,751.6c-0.2,0.6-0.4,0.9-0.4,1.2c0,90.2,0,180.4,0,270.5
	c0,0.9,0.1,1.7,0.2,2.6c0,0.1,0.1,0.2,0.2,0.3c0.1,0.1,0.2,0.2,0.5,0.5c0.9,0,2,0,3.1,0c0.5,0,0.9-0.2,1.6-0.3c0-91.6,0-183,0-274.8
	C148.1,751.6,146.4,751.6,144.8,751.6z M264.3,751.6c0,91.8,0,183.2,0,274.9c1.9,0,3.6,0,5.4,0c0-91.7,0-183.2,0-274.9
	C267.9,751.6,266.4,751.6,264.3,751.6z M276.3,751.6c0,91.7,0,183.2,0,274.9c1.9,0,3.6,0,5.4,0c0-91.7,0-183.2,0-274.9
	C279.9,751.6,278.3,751.6,276.3,751.6z M90.9,781.5c-0.2,0.6-0.4,0.9-0.4,1.2c0,80.1,0,160.1,0,240.2c0,1,0.1,2,0.2,3
	c0,0.1,0.1,0.2,0.2,0.3c0.1,0.1,0.2,0.2,0.2,0.3c1.6,0,3.2,0,4.7,0c0.2-0.6,0.4-0.9,0.4-1.2c0-80.2,0.1-160.4,0.1-240.6
	c0-0.9-0.1-1.7-0.2-2.6c0-0.1-0.1-0.2-0.2-0.3c-0.1-0.1-0.2-0.2-0.3-0.3C94,781.5,92.5,781.5,90.9,781.5z M318,781.5
	c0,80.6,0,160.6,0,240.7c0,1.2,0.1,2.5,0.2,3.7c0,0.1,0.1,0.2,0.2,0.3c0.1,0.1,0.2,0.2,0.6,0.5c1.4-0.1,3-0.1,4.9-0.2
	c0-80.7,0-160.9,0-241c0-1.1-0.1-2.2-0.2-3.3c0-0.1-0.1-0.2-0.2-0.3c-0.1-0.1-0.2-0.2-0.3-0.3C321.6,781.5,320,781.5,318,781.5z
	 M102.4,902.6c0.3,0.1,0.5,0.3,0.8,0.4c2.3-1.8,4.6-3.7,6.9-5.5c3.9-3.2,4.7-3.2,8.6,0c2.3,1.9,4.6,3.6,7.1,5.6
	c0.7-4.8,0.5-98.4-0.2-101.1c-1,0.7-1.9,1.2-2.7,1.9c-5.9,5.3-11.7,10.8-17.7,16c-2.2,1.9-2.9,4-2.9,6.8c0.1,24.1,0.1,48.1,0.1,72.2
	C102.4,900.1,102.4,901.3,102.4,902.6z M288.3,801.7c0,33.9,0,67.5,0,101.6c2.9-2.3,5.3-4.1,7.7-6.1c3.3-2.8,4.3-2.8,7.8-0.1
	c0.5,0.4,0.9,0.9,1.4,1.2c2,1.6,4.1,3.1,6.5,5c0.1-1.5,0.3-2.5,0.3-3.4c0-24.7,0-49.4,0.1-74c0-2.3-0.7-4-2.4-5.5
	c-6.1-5.5-12.2-11-18.3-16.5C290.5,803.1,289.5,802.5,288.3,801.7z M37.1,823.5c-0.2,0.4-0.5,0.7-0.5,0.9
	c-0.1,66.2-0.1,132.4-0.1,198.7c0,1,0.1,2,0.2,3c0,0.1,0.1,0.2,0.2,0.3c0.1,0.1,0.2,0.2,0.3,0.3c1.6,0,3.1,0,4.7,0
	c0.2-0.5,0.4-0.9,0.4-1.2c0-66.1,0.1-132.2,0.1-198.3c0-1-0.1-2-0.2-3c0-0.1-0.1-0.2-0.2-0.3c-0.1-0.1-0.2-0.2-0.3-0.3
	C40.1,823.5,38.6,823.5,37.1,823.5z M48.7,823.5c0,67.8,0,135.3,0,203c1.9,0,3.6,0,5.4,0c0-67.8,0-135.3,0-203
	C52.3,823.5,50.6,823.5,48.7,823.5z M360.1,823.5c-0.1,1.2-0.2,2-0.2,2.7c0,66.3,0,132.7,0.1,199c0,0.2,0.1,0.5,0.2,0.7
	c0,0.1,0.1,0.2,0.2,0.3c0.1,0.1,0.2,0.2,0.6,0.5c1.4-0.1,3-0.1,4.7-0.2c0.1-1.3,0.2-2.2,0.2-3.1c0-66.2,0-132.4,0-198.7
	c0-0.2-0.1-0.5-0.2-0.7c0-0.1-0.1-0.2-0.2-0.3c-0.1-0.1-0.2-0.2-0.3-0.3C363.5,823.5,362,823.5,360.1,823.5z M377.3,1026.5
	c0.2-0.6,0.4-0.9,0.4-1.2c0-66.2,0.1-132.4,0.1-198.7c0-0.9-0.1-1.7-0.2-2.6c0-0.1-0.1-0.2-0.2-0.3c-0.1-0.1-0.2-0.2-0.2-0.3
	c-1.6,0-3.2,0-4.6,0c-0.2,0.4-0.5,0.7-0.5,0.9c-0.1,66.2-0.1,132.4-0.1,198.7c0,1,0.1,2,0.2,3c0,0.1,0.1,0.2,0.2,0.3
	c0.1,0.1,0.2,0.2,0.2,0.3C374.2,1026.5,375.7,1026.5,377.3,1026.5z M84.2,838.8c-7.7,6.9-14.8,13.3-21.9,19.6
	c-1.5,1.3-1.8,2.8-1.8,4.6c0,12.5,0,24.9,0,37.4c0,0.8,0.2,1.6,0.4,2.9c2.8-2.3,5.2-4.2,7.6-6.2c3.6-2.9,4.6-2.8,8.1,0.1
	c2.4,2,4.8,3.8,7.6,6C84.2,881.6,84.2,860.6,84.2,838.8z M330.1,838.9c0,21.8,0,42.8,0,64.1c0.7-0.4,1.1-0.5,1.5-0.8
	c2.3-1.8,4.6-3.7,7-5.6c2.4-1.9,3.4-1.9,6-0.2c0.9,0.6,1.7,1.4,2.6,2.1c2,1.5,4,3,6.2,4.6c0.2-0.7,0.4-1,0.4-1.2
	c0-13.2,0-26.4,0.1-39.6c0-1.7-0.7-2.8-1.8-3.9c-2.9-2.6-5.7-5.2-8.6-7.8C339.2,846.9,334.9,843.1,330.1,838.9z M84.1,971
	c0-9.4,0-18.4,0-27.7c-7.9,0-15.5,0-23.4,0c0,9.3,0,18.4,0,27.7C68.6,965.4,76.2,965.4,84.1,971z M126,970.9c0-9.4,0-18.4,0-27.7
	c-7.9,0-15.5,0-23.4,0c0,9.3,0,18.4,0,27.7C110.4,965.4,118.6,965.5,126,970.9z M288.2,971c7.9-5.6,15.6-5.6,23.7,0.1
	c-0.2-9.5,0.2-18.7-0.2-27.7c-5.1-0.7-20.7-0.5-23.5,0.3C288.2,952.6,288.2,961.7,288.2,971z M330.5,943.2c-0.7,3.6-0.7,24.6,0,27.5
	c7.7-5.5,15.4-5.3,23.1,0.1c0-9.4,0-18.4,0-27.7C345.7,943.2,338.1,943.2,330.5,943.2z M137,745c0.7-3.4-0.7-21.2-2.1-23.9
	c-0.1,7.9-2.3,15.7-1.8,23.9C134.7,745,135.9,745,137,745z M148.8,745.1c0.9-2.7-0.3-20.8-1.9-23.9c-0.3,7.9-2.2,15.7-1.8,23.9
	C146.6,745.1,147.7,745.1,148.8,745.1z M268.6,745.1c0.9-2.7-0.3-20.8-1.9-23.9c-0.3,7.9-2.2,15.7-1.8,23.9
	C266.4,745.1,267.5,745.1,268.6,745.1z M279.5,721.1c-0.3,0-0.7,0-1,0.1c0,7.9-1.9,15.7-1.6,23.8c1.6,0,2.9,0,4.7,0
	C280.8,736.8,280.1,729,279.5,721.1z M95.4,775c0.4-2.9,0.3-5.6-0.2-8.3c-0.4-2.6-0.4-5.2-0.7-7.8c-0.2-2.6-0.5-5.2-0.8-7.8
	c-0.3,0-0.7,0-1,0c0.2,8-2,15.8-1.5,23.9C92.9,775,94,775,95.4,775z M323.3,775.1c-0.3-3.1-0.5-5.8-0.7-8.5
	c-0.2-2.6-0.2-5.2-0.7-7.8c-0.5-2.5,0.2-5.3-1.1-8.4c-1.5,6.3-2.4,22-1.5,24.7C320.4,775.1,321.5,775.1,323.3,775.1z M39.9,793
	c-0.3,0-0.6,0-1,0c-0.1,7.9-2,15.7-1.6,24.1c1.7-0.1,3-0.1,4.7-0.2C41.3,808.6,40.6,800.8,39.9,793z M365.3,816.9
	c-0.7-8.3-1.4-16.1-2.1-24.7c-1.4,3.6-2.8,21.4-2.1,24.7C362.2,816.9,363.4,816.9,365.3,816.9z M51.4,793c-0.5,8-2.6,15.8-2.1,23.9
	c1.1,0.1,1.7,0.3,2.3,0.2c0.6,0,1.2-0.2,2.1-0.4C53.8,808.7,52.2,800.9,51.4,793z M374.8,793c-0.4,8-2.7,15.8-2.1,24.1
	c1.7-0.1,2.9-0.2,4.3-0.2C377.2,808.7,375.5,800.9,374.8,793z M174.2,859.2c-2.2,0-3.9,0-5.6,0c-1,0-2,0-3,0c-1.5,0-2.7-0.7-3.2-2.2
	c-0.5-1.5,0.2-2.7,1.5-3.5c2.9-1.8,5.8-3.4,8.7-5.1c10.2-5.8,20.4-11.6,30.4-17.5c2.8-1.6,5.1-1.9,7.9-0.2
	c9.5,5.6,19.2,11.1,28.8,16.6c2.9,1.7,5.8,3.4,8.7,5c0.8,0.4,1.5,0.9,2.2,1.4c1.1,0.8,1.8,2.1,1.1,3.2c-0.6,0.9-1.7,1.9-2.8,2.1
	c-1.7,0.4-3.5,0.1-5.2,0.1c-1.1,0-2.2,0.1-3.7,0.3c0,1.5,0,2.9,0,4.2c0,14.3,0,28.7,0,43c0,0.9,0,1.7,0,2.6
	c-0.2,2.6-1.1,3.6-3.6,3.8c-0.6,0-1.2,0-1.9,0c-18.3,0-36.7,0-55,0c-0.5,0-1,0-1.5,0c-2.9-0.2-3.8-1-4-3.8c-0.1-0.9,0-1.7,0-2.6
	c0-14.2,0-28.4,0-42.6C174.2,862.6,174.2,861.2,174.2,859.2z M221.6,906.8c0.2-0.7,0.4-0.9,0.4-1.1c0-10.8,0.2-21.7,0-32.5
	c-0.1-3.9-1.8-7.4-4.7-9.9c-4.6-4-10-5.5-15.9-2.8c-5.9,2.7-9,7.4-9.1,13.8c-0.2,9.8-0.1,19.7,0,29.5c0,0.9,0.2,1.9,0.3,3
	C202.4,906.8,211.9,906.8,221.6,906.8z M186.2,800.5c0,5.9,0,11.7,0,17.6c0,4.4,0.7,5.1,4.9,5.1c10.7,0,21.5,0,32.2,0
	c4.2,0,4.9-0.7,4.9-5.1c0-11.2,0.2-22.5-0.1-33.7c-0.3-11.9-6.4-20.4-16.8-25.8c-2.8-1.4-5.4-1.5-8.2,0
	c-10.4,5.5-16.5,13.9-16.9,25.8C186,789.8,186.2,795.1,186.2,800.5C186.2,800.5,186.2,800.5,186.2,800.5z M123.4,871.1
	c0.3-6.1-0.5-12.2-2.3-18c-1-3.3-2.2-6.6-3.8-9.7c-1.5-3.1-4.1-3-5.9,0c-0.1,0.2-0.2,0.4-0.3,0.7c-3.2,6.6-5.1,13.5-5.5,20.7
	c-0.4,6.7-0.2,13.4-0.1,20.2c0,3.1,1,4,4,4.1c3.2,0.1,6.5,0.1,9.7,0c3.3-0.1,4.2-0.9,4.3-4.2c0.1-3.4,0-6.7,0-10.1
	C123.4,873.6,123.3,872.3,123.4,871.1z M306.6,852.9c-1-3.3-2.3-6.6-3.8-9.7c-1.5-2.9-4-2.7-5.8,0c-0.2,0.3-0.3,0.7-0.5,1
	c-3.1,6.4-5,13.3-5.5,20.4c-0.4,6.8-0.2,13.7-0.1,20.5c0,3,1,3.9,4.2,3.9c3.1,0.1,6.2,0.1,9.3,0c3.6-0.1,4.4-0.9,4.5-4.4
	c0.1-3.2,0-6.5,0-11.2C309.4,867.5,308.9,860.1,306.6,852.9z"/>
<linearGradient id="SVGID_00000026162810436470704120000017352325567320340629_" gradientUnits="userSpaceOnUse" x1="203.8602" y1="393.9344" x2="203.8602" y2="126.9876">
	<stop  offset="0" style="stop-color:#FFD000"/>
	<stop  offset="0.2237" style="stop-color:#EC9817"/>
	<stop  offset="0.4918" style="stop-color:#D65C30"/>
	<stop  offset="0.7201" style="stop-color:#C72F43"/>
	<stop  offset="0.8966" style="stop-color:#BE144E"/>
	<stop  offset="1" style="stop-color:#BA0A52"/>
</linearGradient>
<path style="fill:url(#SVGID_00000026162810436470704120000017352325567320340629_);" d="M244.8,392.7c-5,0.1-9.9,0.2-14.9,0.3
	c-0.2-0.1-0.4-0.2-0.7-0.3C234.4,392.7,239.6,392.7,244.8,392.7z M403.1,347.1v3.1c-0.3,1.3-0.8,2.6-0.9,3.8
	c-0.2,4.2-0.2,8.4-0.2,12.5c0,5,0,10.1-0.1,15.1c0,0.6-0.1,1.4-0.5,1.6c-1.9,1.2-4.1,1.9-6.5,2.2c0-0.8-0.1-1.5-0.1-2.1
	c0-5,0-10,0-15c0-2.7-0.1-5.4-0.4-8.1c-0.1-1.3-0.7-2.5-1.1-3.7c-0.3-0.3-0.6-0.6-1.1-1.1c-0.4,1-0.8,1.6-1,2.4
	c-0.4,2.4-0.8,4.7-0.9,7.1c-0.1,6.5,0,13,0,19.5c0,0.7-0.1,1.4-0.1,2.2c-2.6,0.6-5.2,1.1-7.9,1.1c0-0.9-0.1-1.6-0.1-2.3
	c0-6.9,0-13.9-0.1-20.8c0-2.3-0.5-4.6-0.9-6.8c-0.2-0.9-0.7-1.8-1.4-2.5c-1-1.1-2.4-0.9-3.2,0.4c-0.4,0.7-0.9,1.6-1,2.4
	c-0.4,2.2-0.9,4.4-0.9,6.6c-0.1,7.4,0,14.8,0,22.2c0,1.8-0.1,1.9-1.9,2c-0.7,0-1.4,0.1-2.1,0.2c-1.1,0.1-2.2,0.1-3.3,0.2
	c-0.7,0-1.4,0-2.2,0c-0.1-0.3-0.2-0.5-0.3-0.6c0-0.6-0.1-1.1-0.1-1.7c0-7.8,0-15.5-0.1-23.3c0-2.5-0.4-4.9-1.6-7.1
	c-0.7-1.4-1.9-2.3-3.5-2.3c-1.6,0-2.4,1.2-3.1,2.4c-0.2,0.4-0.4,0.9-0.6,1.4c-0.8,2.2-1.2,4.5-1.2,6.9c0,7.6,0,15.1,0,22.7
	c0,0.6-0.1,1.2-0.1,1.9c-2.3,0.1-4.6,0.1-6.8,0.2c0-0.7,0-1.3,0-1.9c-0.1-8.7-0.1-17.5-0.2-26.2c0-2.4-0.6-4.7-2-6.7
	c-2.2-3.2-6.6-3.2-8.7,0.1c-1.5,2.4-2.3,5-2.3,7.8c0,8.5,0,17.1,0,25.6c0,0.5,0,0.9,0,1.5c-2.8,0.1-5.6,0.2-8.4,0.2
	c0-0.7-0.1-1.3-0.1-1.9c0-8.2,0-16.5,0-24.7c0-1.3-0.1-2.7-0.4-4c-0.3-1.9-0.9-3.8-2.1-5.4c-2.7-3.3-7.7-3.1-10,0.5
	c-1.5,2.4-2.3,5.1-2.3,8c0.1,8.7,0.1,17.4,0.2,26.1c0,0.5-0.1,1.1-0.1,1.8c-4.2,0.1-8.3,0.2-12.5,0.4h-1.3c0-0.7,0-1.4,0-2.1
	c0.1-7.6,0.2-15.1,0.2-22.7c0-3-0.2-6.1-1.2-9.1c-2.3-6.5-12-7.4-15.5-3.6c-2.2,2.4-3.7,5-3.6,8.3c0.1,9.1,0.1,18.2,0.1,27.3
	c0,0.7-0.1,1.5-0.1,2.4c-3.6,0.3-7.1,0.3-10.8,0.2c0-1,0-1.6,0-2.3c0-5.8,0.1-11.7,0-17.5c-0.1-3.7-0.2-7.4-0.6-11
	c-0.3-3-1.3-5.8-3.9-7.5c-3.9-2.6-8.2-3.2-12.4-1.1c-3.8,1.9-6,5.2-6,9.6c0,9.5,0.1,18.9,0.1,28.4c0,1.7-0.1,1.8-1.8,1.8
	c-3.6,0-7.3,0-10.9,0c-0.4,0-0.9-0.1-1.5-0.1c0-0.9,0-1.7,0-2.5c-0.1-10.3-0.1-20.5-0.4-30.8c-0.1-3.7-1.4-7.1-4.8-9.3
	c-2.4-1.5-5-1.9-7.8-2c-6.8-0.3-10.4,4.4-11.8,8.7c-0.1,0.4-0.2,0.9-0.2,1.4c0,11.1,0.1,22.3,0.2,33.4c0,0.5,0.1,1.1,0.1,1.7h1.2
	c-0.5,0.3-1,0.5-1.5,0.8c-4.9,0.1-9.7,0.2-14.6,0.2l0,0c-0.6-0.4-1.3-0.8-2-1.1c0,0,0.1,0,0.1,0c0.1-0.7,0.1-1.3,0.1-1.8
	c-0.1-9-0.1-18.1-0.3-27.1c0-2.8-0.4-5.6-1.4-8.3c-1.3-3.1-3.5-5.3-6.8-6.1c-1.6-0.4-3.3-0.6-5-0.6c-6-0.1-11.4,5.4-11.4,11.4
	c0,10.2,0,20.4,0.1,30.6c0,1.8,0.1,1.9,1.8,1.9c0,0,0,0,0,0c-0.7,0.4-1.4,0.8-2.1,1.2c0,0,0,0,0,0c-4,0-8,0-12,0
	c-0.9-0.5-1.9-0.9-2.9-1.3c0.9-0.1,0.9-0.5,0.9-2c0-8.3,0.1-16.6-0.1-24.8c0-2.8-0.3-5.7-0.9-8.5c-0.9-4.3-3.7-6.6-8.2-7.3
	c-4.7-0.7-8.2,0.9-10.4,4.8c-0.8,1.5-1.7,2.9-1.7,4.7c0.2,7.5,0.4,15,0.6,22.5c0,1,0.1,2,0.1,3.1c0,2.4,0,4.8,0,7.4
	c-4.4-0.1-8.7-0.1-13-0.5c0-0.9-0.1-1.6-0.1-2.3c0-8.2,0-16.3-0.1-24.5c0-1.9-0.1-3.9-0.3-5.8c-0.6-5.2-4.3-8.4-9.4-8.6
	c-2.6-0.1-4.4,1.1-5.6,3.3c-1.2,2.1-1.7,4.3-1.6,6.8c0.2,9.2,0.4,18.5,0.6,27.7c0,0.7-0.1,1.5-0.1,2.4c-4.2-0.3-8.2-0.6-12.3-0.8
	c0-1,0-1.7,0-2.4c-0.1-8.7-0.1-17.5-0.3-26.2c-0.1-3.2-1.1-6.1-3.9-8.1c-3.1-2.1-7.2-1.6-9,1.1c-1.3,1.9-1.8,4.1-1.8,6.4
	c0.2,8.8,0.4,17.7,0.5,26.5c0,0.5-0.1,1.1-0.1,1.7c-2.7-0.1-5.1-0.2-7.7-0.3c-0.1-0.8-0.2-1.4-0.2-2c-0.1-3.3-0.1-6.5-0.2-9.8
	c-0.1-4.3-0.1-8.7-0.5-13c-0.2-2.5-0.7-5.1-1.6-7.5c-1.2-3.4-3.8-4.2-7-2.5c-1.3,0.7-2.1,1.9-2.4,3.2c-0.4,1.8-0.7,3.6-0.7,5.4
	c0,7.9,0.2,15.7,0.3,23.6c0,0.6,0,1.2,0,1.9c-2.4-0.2-4.6,0.2-6.9-0.5c0-0.6-0.1-1-0.1-1.5c-0.1-4.3-0.1-8.6-0.2-12.9
	c0-4.3,0-8.6-0.2-12.9c0-1.3-0.5-2.6-1.1-3.8c-0.9-1.7-2.5-2.2-4.3-2c-1.6,0.2-2.1,1.6-2.3,2.9c-0.3,1.6-0.4,3.3-0.4,5
	c0,7.6,0,15.1,0.1,22.7c0,0.7-0.1,1.4-0.1,2h-5c0-0.8,0-1.4,0-2c0-5.6,0.1-11.1,0.1-16.7c0-2.5,0.1-5-0.1-7.5c-0.1-1.3-0.5-2.7-1-4
	c-0.3-0.7-1.2-1.5-1.8-1.5c-1-0.1-1.3,1-1.5,1.9c-0.2,1.1-0.4,2.3-0.4,3.5c0,7,0.1,14,0.2,21c0,1.3,0,2.7,0,4c0,0.9-0.4,1.3-1.3,1.3
	c-0.9,0-1.8,0-2.8-0.1c-1.6-0.1-1.7-0.2-1.8-1.8c0-0.4,0-0.7,0-1.1c0.1-6.3,0.2-12.7,0.2-19c0-1.9-0.3-3.8-0.6-5.6
	c-0.1-0.6-0.6-1.5-1.1-1.6c-0.5-0.1-1.2,0.5-1.7,1c-1.1,1.3-1.7,2.7-1.6,4.5c0.1,7.1,0,14.1,0,21.2c0,0.7-0.1,1.4-0.2,2H7.5
	c-0.1-0.8-0.1-1.4-0.1-2c0.1-9.4,0.1-18.7,0.2-28.1c0-0.7-0.1-1.6-0.5-2.2c-0.7-1.2-1.7-2.3-2.5-3.5v-2.5c1.1-1.1,2.6-2.1,3.1-3.5
	c0.7-2.1,1-4.4,1-6.6c-0.1-6.1-0.4-12.3-0.6-18.4c0-1.3-0.3-2.4-1-3.5c-0.7-1.3-1.3-2.6-1.8-4c-1.5-4.7-0.3-8.8,3.6-11.9
	c0.8-0.7,1.2-1.4,1.2-2.5c0-4.6,0.2-9.2,0.2-13.8c0-0.9-0.3-1.9-0.7-2.7c-1.6-2.9-2.9-5.9-3-9.2c-0.1-3,0.1-6.1,2.3-8.5
	c2.6-2.9,5.2-5.9,8.1-8.6c9.9-9,21.1-16.3,32.6-23c11.8-6.9,24.4-12.1,37.2-16.9c10.5-3.9,21.3-7.2,32.2-9.8
	c14.3-3.4,28.7-6.1,43.1-8.8c1-0.2,1.6,0.2,2.3,0.8c2.7,2.2,3.7,4.9,3.3,8.3c-0.3,2.4-0.1,4.9-0.1,7.3c-0.7,0.2-1.2,0.4-1.7,0.5
	c-0.5,2.2-0.6,2.7,0.9,4.1c3.4,3.3,5.2,7.4,6.4,12c1.5,5.9,3.5,11.6,5.2,17.5c0.3,0.9,0.6,1.6,1.7,1.5c2.6-0.1,5.2-0.2,7.8-0.3
	c0.4,0,1-0.2,1-0.4c0.3-1.3,1.3-1.1,2.2-1.1c1.5-0.1,3-0.2,4.4-0.3c0.5,0,1.1,0.1,1.5,0.1c1.6,3.2,3.1,6.2,4.5,9.3
	c0.5,1,0.8,2.2,0.8,3.4c0,6.6,0,13.3-0.4,19.9c-0.2,3.9,0.5,7.3,2,10.8c3.3,8.2,6.6,16.5,9.9,24.8c0.7,1.7,0.7,1.8,2.5,1.8
	c7.7-0.1,15.3-0.2,23-0.2c8.5-0.1,17.1-0.1,25.6-0.1c1.6,0,1.7-0.1,1.8-1.8c0.1-2.7,0.1-5.3,0.3-8c0.2-3.8-0.4-7.3-2.3-10.6
	c-2.9-5.1-8.6-7.7-13.7-6.1c-5,1.5-7.8,5.2-9.2,10.1c-0.9,3.1-0.6,6.3-0.5,9.4c0,0.9,0,1.8,0,2.7c-1.5,0.5-9.9,0.5-11.5,0
	c0-0.9,0-1.9,0-2.9c0-1.9,0.2-3.8,0.1-5.7c-0.1-3-0.9-5.8-2.7-8.3c-3.9-5.3-10.3-5.3-14.1,0c-0.4,0.5-0.7,1-1.2,1.7
	c-0.3-0.7-0.5-1.2-0.6-1.6c-1.1-3.1-2.1-6.3-3.1-9.5c-0.3-1-0.5-2-0.5-3c0.1-5.8,0.2-11.5,0.4-17.3c0.1-2.2,0.2-2.4,2.4-2.6
	c0.1,0,0.2,0,0.3,0c5.3-0.1,10.6-0.3,15.9-0.4c5.8-0.1,11.6-0.2,17.5-0.4c1.7,0,3.4-0.2,5.3-0.3c-0.1-0.7-0.1-1.2-0.2-1.7
	c-0.2-1.1-0.1-2,0.9-2.7c0.4-0.4,0.6-1.1,0.7-1.8c0.3-1.5,0.4-3,0.6-4.5c0.5-2.5,1.2-3.1,3.7-3c9.9,0.3,19.7,0.4,29.6,0.9
	c6.8,0.3,13.7,0.9,20.5,1.6c7.1,0.7,14.2,1.6,21.3,2.7c7.9,1.2,15.8,2.4,23.5,4.4c14.8,3.7,28.3,10.4,41.1,18.6
	c4.4,2.8,7.7,6.6,9.6,11.4c0.3,0.8,0.5,1.8,0.4,2.7c-0.1,4.6-0.2,9.3-0.3,13.9c0,0.6,0.2,1.4,0.6,1.9c0.9,1.1,1.2,2.3,1,3.7
	c-0.4,3.3-0.7,6.7-0.8,10.1c-0.1,6.4,0.1,12.9-0.1,19.3C401.3,342.2,402,344.7,403.1,347.1z M18.5,321.7c-0.1-1.7-0.5-3.4-0.9-5.1
	c-0.2-0.9-0.6-2-1.7-2c-1.2,0-1.6,1.1-1.8,2c-0.4,1.7-0.9,3.5-0.9,5.2c-0.1,4.6-0.1,9.3-0.1,13.9c0,0.5,0.1,1,0.2,1.6
	c1.4-0.4,2.6-0.7,3.8-1c1-0.2,1.4-0.8,1.4-1.9C18.6,330.3,18.7,326,18.5,321.7z M21.4,289.8c-0.1-3.6,0-7.1-0.1-10.7
	c0-1.5-0.3-3-0.6-4.5c-0.2-0.7-0.6-1.4-1-2c-0.6-0.7-1.4-0.7-1.9,0c-0.5,0.6-0.9,1.3-1,2c-0.3,1.5-0.7,3-0.7,4.5
	c0,3.4,0.2,6.8,0.4,10.2c0.1,1.6,0.2,3.2,0.3,5.2c1.4-0.9,2.4-1.7,3.4-2.3C21.1,291.7,21.4,290.9,21.4,289.8z M29.6,313.7
	c-0.1-1.9-0.7-3.8-1.4-5.6c-1-2.2-2.7-2.2-3.9-0.1c-1,1.7-1.4,3.5-1.5,5.4c0,6.8,0,13.6,0,20.3c0,0.2,0.1,0.5,0.2,0.9
	c2-0.5,4-1.1,5.9-1.6c0.7-0.2,0.8-0.9,0.8-1.5C29.6,325.6,29.7,319.7,29.6,313.7z M33.5,264.9c-0.1-1.8-0.8-3.7-1.5-5.4
	c-0.9-1.9-2.5-1.9-3.6-0.1c-0.2,0.4-0.5,0.8-0.6,1.2c-0.8,2-1.1,4.1-1.1,6.3c0,6.3,0,12.7,0.1,19c0,0.5,0,1,0.1,1.9
	c2.3-1.3,4.3-2.5,6.3-3.7c0.3-0.2,0.5-0.8,0.5-1.2C33.6,276.9,33.7,270.9,33.5,264.9z M45.3,327.6c0.1-5.4,0.2-10.8,0.2-16.2
	c0-2.9-0.5-5.7-2.2-8.1c-2-2.8-4.9-2.8-6.9-0.1c-1.6,2.2-2.2,4.8-2.2,7.5c-0.1,2,0.2,4,0.2,6c0,4.3,0,8.6,0,12.9
	c0,0.6,0.1,1.3,0.2,2.2c3.5-0.7,6.7-1.3,9.8-2c0.4-0.1,0.7-0.7,0.9-1.2C45.4,328.3,45.3,327.9,45.3,327.6z M49.8,258.7
	c0-2.2-0.6-4.2-1.7-6.1c-2.1-3.7-5.4-3.7-7.6-0.2c-1.4,2.3-1.9,4.8-1.9,7.5c0,6.5,0.1,13.1,0.1,19.6c0,0.5,0,1,0,1.7
	c0.5-0.1,0.7-0.2,0.9-0.2c3-1.3,6.1-2.7,9.1-4c0.8-0.4,1.1-0.9,1.1-1.8C49.8,269.7,49.9,264.2,49.8,258.7z M64.9,316.1
	c0-3.8,0.1-7.7,0-11.5c-0.1-2.5-0.8-4.7-2.5-6.6c-2.2-2.5-5.2-2.4-7.2,0.2c-0.9,1.2-1.5,2.8-2,4.2c-0.8,2.3-0.4,4.6-0.4,7
	c0.1,5.6,0,11.2,0,16.8c0,0.6,0.1,1.2,0.1,1.8c0.4,0.1,0.6,0.1,0.7,0.1c3.3-0.4,6.6-0.8,9.9-1.1c1-0.1,1.4-0.6,1.4-1.6
	C64.9,322.3,64.9,319.2,64.9,316.1z M68.5,244.8c-0.6-1.2-1.4-2.4-2.4-3.3c-1.6-1.5-3.8-1.4-5.4,0.1c-0.9,0.8-1.6,1.9-2.2,2.9
	c-0.9,1.8-1.3,3.8-1.2,5.8c0,6.8,0,13.7,0.1,20.5c0,0.5,0.1,1.1,0.2,1.7c3.6-0.4,7-0.7,10.2-2c1.7-0.7,1.7-0.6,1.7-2.4
	c0-4.5,0-9,0-13.5c0-0.7,0-1.4,0.1-2.1C70,249.8,69.7,247.2,68.5,244.8z M86.6,301.4c-0.1-3-1.1-5.8-3.4-7.9c-2.2-2-4.7-1.9-6.8,0.2
	c-1.8,1.8-2.8,4-3,6.4c-0.2,2.3-0.1,4.6-0.1,6.9c0,5.8,0,11.5,0,17.3c0,1.6,0.2,1.8,1.6,1.7c3.4-0.3,6.7-0.6,10.1-1
	c1.5-0.2,1.6-0.3,1.6-1.8c0-3.6,0-7.3,0-10.9c0,0,0,0,0,0C86.7,308.6,86.8,305,86.6,301.4z M90.9,243.3c0-2.5-0.8-4.9-2.3-7
	c-1.1-1.5-2.5-2.7-4.6-2.6c-2.5,0.1-4,1.8-5,3.8c-1.4,2.7-1.8,5.6-1.6,8.6c0.1,1.2,0.2,2.4,0.2,3.7c0,5.1,0,10.2,0,15.3
	c0,0.6,0,1.2,0.1,1.9c0.4,0,0.6,0,0.7,0c3.8-1.2,7.6-2.3,11.4-3.5c0.9-0.3,1-0.9,1-1.7C90.8,255.7,90.9,249.5,90.9,243.3z
	 M115.1,300.1c0-3.4-0.7-6.6-2.9-9.3c-3.2-4.1-8.2-3.9-11.2,0.3c-1.6,2.3-2.5,4.9-2.5,7.7c0,2.3,0.2,4.6,0.2,6.9
	c0,5.3,0,10.5,0,15.8c0,0.6,0.1,1.2,0.1,1.9c0.4,0.1,0.5,0.2,0.7,0.2c4.7-0.3,9.5-0.7,14.2-1.1c0.9-0.1,1.3-0.6,1.3-1.5
	c0-3.1,0-6.2,0-9.3C114.9,307.7,115.1,303.9,115.1,300.1z M117,237.1c-0.3-2.9-1.4-5.5-3.6-7.6c-1.2-1.2-2.6-1.9-4.4-1.9
	c-2.9-0.1-4.8,1.6-6.2,3.8c-1.6,2.5-2.3,5.2-2.2,8.2c0,2,0.2,4.1,0.2,6.1c0,4.1,0,8.2,0,12.3c0,0.7,0.1,1.3,0.1,2.2
	c0.7-0.1,1.1-0.1,1.6-0.2c4.3-1,8.6-2.1,12.9-3.2c1.6-0.4,1.6-0.4,1.6-2.1c0-3.9,0-7.9,0-11.8C117,240.9,117.2,239,117,237.1z
	 M146.3,286.5c-3.8-4.5-9.7-4.5-13.5,0.1c-2.7,3.3-3.6,7.1-3.4,11.3c0.1,1.4,0.2,2.7,0.2,4.1c0,5.6,0,11.2,0,16.9c0,0.4,0,0.7,0,1.1
	c-0.1,1,0.4,1.4,1.4,1.3c0.8-0.1,1.6-0.2,2.4-0.2c0,0,0,0,0,0.1c4.7-0.3,9.5-0.6,14.2-0.9c1.7-0.1,1.7-0.2,1.7-2
	c0-5.2,0-10.4,0-15.6c0-1.6,0.2-3.2,0.2-4.7C149.9,293.6,149.1,289.8,146.3,286.5z M147,220.2c-3.5-3.6-8.4-3.7-12-0.2
	c-3.2,3.1-4.3,7.1-4.2,11.5c0,3.9,0.2,7.7,0.4,11.6c0,0-0.1,0-0.1,0c0,3.1,0,6.2,0,9.3c0,1.6,0.3,1.8,1.8,1.6
	c5.4-0.7,10.8-1.4,16.2-2.1c1.6-0.2,1.7-0.3,1.7-1.9c0-4.5,0-9.1,0-13.6c0-1.3,0.1-2.5,0.2-3.8C151.3,228,150.3,223.7,147,220.2z
	 M186.8,287.4c-0.7-1.4-1.6-2.8-2.7-4c-4.2-4.5-10.1-4.4-14.2,0.2c-3.3,3.6-4.4,8-4.2,12.7c0.1,3.9,0.3,7.8,0.4,11.8l-0.1,0
	c0,3,0,6,0,9c0,2,0,2.1,2.1,2c6.1-0.2,12.1-0.4,18.2-0.6c1.9-0.1,2-0.1,2-2c0-5.2,0-10.4,0-15.6c0-1,0.1-1.9,0.2-2.9
	C188.7,294.4,188.5,290.7,186.8,287.4z M297.6,259c0,4.2,0,8.4,0,12.5c0,1,0.5,1.3,1.4,1.3c1.5,0,3,0,4.4,0c1.3,0,1.5-0.2,1.5-1.5
	c0-2,0-4,0-6c0-2.1,0-4.2,0-6.3c0-0.9-0.4-1.4-1.4-1.4c-1.6,0-3.2,0-4.7,0C298,257.7,297.6,258.1,297.6,259z M309.5,305.8
	c-0.6-1.6-1.5-3.1-2.9-4.2c-2.2-1.8-5-1.8-7.1,0c-0.8,0.7-1.6,1.6-2.1,2.6c-1.6,2.8-2.1,5.8-2,9c0.1,3.7,0.2,7.3,0.4,11
	c0,0-0.1,0-0.1,0c0,2.9,0,5.8,0,8.7c0,1.8,0.1,2,2,2c3.8,0.1,7.5,0.2,11.3,0.3c1.5,0,1.7-0.2,1.7-1.7c0-5.4,0-10.8,0-16.2
	c0-1.1,0-2.2,0.1-3.2C311,311.2,310.5,308.4,309.5,305.8z M317.8,290.6c0,0.8,0.5,1,1.2,1.1c3.1,0.3,6.3,0.6,9.4,0.8
	c1,0.1,1.4-0.4,1.4-1.4c0-1.2,0-2.4,0-3.7c0,0,0,0,0,0c0-0.9,0.1-1.8,0.1-2.8c0-2.9-0.6-5.5-2.8-7.5c-1.8-1.7-4-1.9-6-0.5
	c-1.7,1.1-2.9,2.8-3.1,4.8C317.7,284.4,317.8,287.5,317.8,290.6z M328.7,304.9c-2.6-3.8-6.7-3.8-9.3,0.1c-1.7,2.5-2.2,5.3-2.2,8.3
	c0,3.1,0,6.1,0,9.2c0,0,0.1,0,0.1,0c0,3.8,0,7.6,0,11.3c0,1,0.3,1.5,1.4,1.5c3.4,0.1,6.7,0.2,10.1,0.3c1.8,0,1.8,0,1.8-1.8
	c0-5,0-10,0-15c0-1.6,0.1-3.3,0.2-4.9C331.1,310.8,330.6,307.7,328.7,304.9z M339.2,276.7c0,0.3,0.3,0.9,0.6,0.9
	c1.9,0.6,3.8,1,5.9,1.6c0-0.9,0-1.4,0-2c0-3.1,0-6.1,0-9.2c-0.1-4.3,0.6-3.4-3.5-4.6c-0.9-0.3-1.8-0.4-2.7-0.6
	c-0.2,0.4-0.3,0.5-0.3,0.7C339.2,267.9,339.2,272.3,339.2,276.7z M347.6,306.3c-2.3-3.5-6-3.6-8.3,0c-1.4,2.1-2,4.5-2,7
	c0,3.4,0,6.7,0,10.1h0.1c0,3.7,0,7.4,0,11c0,1.4,0.2,1.5,1.6,1.6c2.9,0.2,5.8,0.3,8.7,0.5c1.6,0.1,1.8,0,1.8-1.6c0-4.6,0-9.2,0-13.8
	c0-2,0.1-4.1,0.2-6.1C349.8,311.9,349.4,308.9,347.6,306.3z M390.4,294.6c0,0.3,0.2,0.7,0.5,0.9c0.7,0.4,1.5,0.7,2.5,1.1
	c0-0.7,0.1-1.2,0.1-1.7c0-1.8,0-3.6,0-5.3c0-2.2-0.7-3-3.1-3.3C390.4,289.1,390.4,291.8,390.4,294.6z M366.2,314.4
	c0-2.5-0.8-4.8-2.3-6.9c-1.6-2.2-4.5-3.2-6.8,0.3l0,0c-1.3,1.7-1.9,3.7-2.1,5.8c-0.1,1.9,0,3.9,0,5.8c0,5.3,0,10.5,0,15.8
	c0,1.5,0.1,1.6,1.5,1.7c2.6,0.3,5.3,0.5,7.9,0.7c1.3,0.1,1.6,0,1.6-1.4C366.2,329,366.3,321.7,366.2,314.4z M368.7,272.4
	c-0.6-0.2-1.1-0.6-1.7-0.9c-0.2,0.3-0.3,0.5-0.3,0.6c0,3.6,0,7.2,0.1,10.8c0,0.3,0.4,0.9,0.8,1c1.2,0.4,2.4,0.7,3.9,1.1
	c0.1-0.8,0.1-1.3,0.1-1.8c0-1.7-0.2-3.5,0-5.2C372,275.4,371.2,273.5,368.7,272.4z M381.6,315.9c-0.2-2.1-0.9-4.1-2.3-5.7
	c-1.4-1.6-3.3-1.6-4.6,0c-0.7,0.9-1.4,1.9-1.7,3c-0.5,2-0.9,4.1-0.9,6.2c-0.1,5.7,0.1,11.3,0.1,17c0,0.5-0.1,1,0.1,1.4
	c0.1,0.4,0.5,0.9,0.8,0.9c2.7,0.5,5.5,1,8.5,1.5c0-0.9,0.1-1.5,0.1-2.1c0-5.2,0-10.3,0-15.5C381.7,320.4,381.8,318.1,381.6,315.9z
	 M384,293.2c-0.1-1.2-0.6-2.5-1.3-3.5c-0.8-1.4-2.5-1.4-3.5-0.1c-0.5,0.7-1,1.6-1.1,2.5c-0.2,3.1-0.1,6.2-0.1,9.3
	c0,0.4,0.3,1,0.6,1.1c1.7,0.6,3.4,1.1,5.1,1.6c0.1-0.4,0.3-0.6,0.3-0.8C384,299.9,384.1,296.5,384,293.2z M394.4,323.9
	c0-2.3-0.5-4.5-1-6.8c-0.2-1.1-0.8-2.6-2.2-2.6c-1.5,0-1.9,1.4-2.3,2.6c-0.9,2.4-1.1,5-1,7.5c0.1,2.7,0.1,5.4,0.1,8.1
	c0,2.4-0.1,4.9-0.1,7.3c0,0.5,0.3,1.3,0.6,1.4c1.8,0.4,3.6,0.7,5.5,1c0.1-0.9,0.2-1.5,0.2-2.2C394.3,334.8,394.5,329.3,394.4,323.9z
	 M127.6,393.7c0.7-0.4,1.5-0.7,2.3-1c-4.9,0-9.8,0-14.7,0c0.6,0.2,1.3,0.5,1.9,0.8C120.6,393.6,124.1,393.6,127.6,393.7z M122.6,127
	c-5.9,2.1-11.7,4.3-17.6,6.3c-9.5,3.4-18.8,7.3-27.6,12.1c-11.5,6.2-22.4,13.4-33,21.1c-6.4,4.6-12.2,9.9-17.2,16
	c-5.6,6.8-10,14.3-13,22.6c-0.5,1.3-0.7,2.7-0.4,4c0.1,0.6,0.3,1.4,0.8,1.7c0.7,0.5,1.1-0.4,1.5-0.9c2.6-2.7,5.1-5.5,7.7-8.1
	c9.4-9.3,19.7-17.7,30.5-25.3c19.7-13.8,40.9-24.9,63.3-33.6c3.9-1.5,7.9-2.9,11.9-4.4c0.6-0.2,1.3-0.3,1.4-1.2
	c0.1-2,0.1-3.7-1.7-5.2c-1.9-1.5-3.6-3.5-5.4-5.2C123.4,127,123,127,122.6,127z M11.8,226.6c-1.3,0.3-1.7,0.7-1.4,2
	c0.8,3,1.6,5.9,2.4,8.9c0.3,1.1,0.5,2.3,0.6,3.4c0.2,4,0.2,8,0.3,11.9c0,0.3,0.1,0.6,0.2,1.2c0.6-0.5,1-0.9,1.4-1.3
	c1.8-1.8,3.5-3.6,5.4-5.3c11.8-10.7,25.2-19,39.4-26c6.3-3.1,12.7-5.8,19.2-8.4c13.1-5.3,26.6-9.4,40.3-12.6
	c14.3-3.4,28.7-6,43.1-8.7c1-0.2,1.7,0,2.3,0.8c0.7,0.8,1.5,1.6,2.3,2.3c0.1-0.1,0.2-0.1,0.3-0.2c0-1.8,0-3.5,0-5.3
	c0-0.4-0.2-0.8-0.4-1.1c-1-1.5-2-3-3-4.4c-0.3-0.4-1-0.8-1.5-0.8c-1.3,0-2.2-0.3-2.3-1.9c-1.2,0.2-2.2,0.3-3.2,0.4
	c-2.4,0.4-2.4,0.4-3.3-1.8c-4.2-10.4-8.4-20.9-12.5-31.3c-0.9-2.3-2.1-4.4-3.7-6.3c-1.2-1.3-1.2-1.4-2.8-0.8
	c-6.7,2.4-13.5,4.7-20.1,7.4c-22.4,9.2-43.3,21-62.8,35.5c-12,9-23.3,18.8-33.5,29.8c-1.1,1.2-1.4,2.3-1.1,3.7
	c0.4,1.5-0.3,2.6-1.3,3.6c-0.3,0.3-0.7,0.6-1,0.9c-1.6,1.5-1.7,1.8-0.5,3.8C13.4,226.3,12.6,226.4,11.8,226.6z M86.4,179.2
	c0,3.4,0,6.8,0,10.2c0,1.3-0.5,2.1-1.7,2.5c-1.8,0.7-3.6,1.6-5.7,2.4c-0.1-0.7-0.2-1.1-0.2-1.6c0-3.6,0-7.2,0-10.9
	c0-0.9,0.3-1.5,1.2-1.9c2-0.8,4-1.7,6.3-2.7C86.4,178.2,86.4,178.7,86.4,179.2z M41.7,215.2c0-3.5,0-6.9,0-10.4c0-1,0.3-1.8,1.1-2.4
	c1.5-1.1,2.9-2.2,4.5-3.4c0.1,0.5,0.1,0.8,0.1,1.1c0,3.6,0,7.2,0,10.9c0,0.6-0.2,1.3-0.6,1.6c-1.5,1.3-3.1,2.6-5,4
	C41.8,215.9,41.7,215.6,41.7,215.2z M26,221.3c0,2.4,0,4.8,0,7.2c0,1.1-0.3,2-1.1,2.7c-0.9,0.9-1.6,1.8-2.7,3
	c-0.1-0.8-0.2-1.2-0.2-1.6c0-3.3,0-6.6,0-9.9c0-1.1,0.3-2,1.1-2.7c0.9-0.9,1.7-1.8,2.5-2.7c0.1,0,0.3,0.1,0.4,0.1
	C26,218.7,26,220,26,221.3z M393.3,356.6C393.3,356.6,393.3,356.6,393.3,356.6C393.3,356.6,393.3,356.6,393.3,356.6z M357.2,307.9
	C357.2,307.9,357.1,307.9,357.2,307.9C357.1,307.9,357.2,307.9,357.2,307.9z"/>
<linearGradient id="SVGID_00000130621293023814291560000003699984066632392374_" gradientUnits="userSpaceOnUse" x1="1143.0573" y1="380.7438" x2="1143.0573" y2="11.9897">
	<stop  offset="0" style="stop-color:#FFD000"/>
	<stop  offset="0.2237" style="stop-color:#EC9817"/>
	<stop  offset="0.4918" style="stop-color:#D65C30"/>
	<stop  offset="0.7201" style="stop-color:#C72F43"/>
	<stop  offset="0.8966" style="stop-color:#BE144E"/>
	<stop  offset="1" style="stop-color:#BA0A52"/>
</linearGradient>
<path style="fill:url(#SVGID_00000130621293023814291560000003699984066632392374_);" d="M1232,86.7c5.2,3.5,10.4,6.8,15.4,10.4
	c5.1,3.7,5,4.2,0.1,8.8c-1,1-1.7,2.5-2.1,4c-1.9,6.9-3.9,13.7-5.1,20.7c-0.6,3.2,1.5,7,0.8,10.2c-0.6,2.7-4.2,4.6-5.1,7.3
	c-2.3,7.1-4.1,14.3-5.4,21.6c-0.6,3.3,1.4,7,0.8,10.2c-0.6,2.7-4.1,4.7-5,7.5c-2.3,7.4-3.8,15-5.6,22.6c-0.4,1.6-1.1,3.6-0.5,4.8
	c2.5,4.9,2.4,8.5-3.2,11c-0.7,0.3-0.6,2.4-0.9,3.6c-1.8,7.2-3.9,14.4-5.1,21.7c-0.6,3.5,1.2,7.5,0.7,11.1c-0.5,3.1-5.2,3.8-5.7,8.2
	c-0.8,6.7-3.6,13.1-4.7,19.8c-0.6,3.6,1,7.5,1,11.2c0,4.1-6.4,3.1-6.6,8.5c-0.2,6.3-3.3,12.5-4.3,18.8c-0.5,3.2,1.7,7,1,10.1
	c-0.6,2.7-4.3,4.7-5.1,7.4c-2.5,8.3-4.2,16.9-6.4,26.2c3.4,0.2,6.2,0.6,9,0.6c3,0,5.1,0.6,5,4.3c-0.1,3.3-2.3,3.4-4.7,3.4
	c-4.2,0-8.5,0-12.7,0c-44.5,0-89.1,0-133.6,0c-2.3,0-4.6,0.2-6.8-0.4c-1.1-0.3-2.3-2.2-2.3-3.4c0-1.2,1.1-2.8,2.2-3.6
	c0.9-0.6,2.5-0.3,3.8-0.3c6.7-0.3,6.7-0.3,8.4-7.3c4-16.4,8.1-32.7,11.7-49.1c0.8-3.5-1.1-7.6-0.2-10.9c0.9-3.1,4.7-4.7,5.3-8.8
	c1-6.7,3.4-13.2,4.6-19.8c0.6-3.2-1.1-6.9-0.3-10c0.7-2.8,4.1-4.9,4.9-7.8c2.2-7.4,3.8-15.1,5.2-22.7c0.5-2.9-1.3-6.4-0.5-9.2
	c0.7-2.8,4.1-4.9,4.9-7.7c2.3-8.1,4-16.3,5.8-24.5c0.2-1.1-0.2-2.4-0.6-3.5c-0.8-2.5-1.9-5,1.7-6.3c0.3-0.1,0.6-0.3,0.7-0.6
	c3.8-11.2,7.6-22.3,7.2-34.4c-0.1-1.8-0.2-4.7,0.7-5.2c3.8-2.1,3.9-5.7,4.7-9.1c1.4-6.3,2.2-12.9,4.5-18.8c1.5-3.9-2.2-7.4-0.2-9.9
	c2-2.5,3.9-5,4.7-8c1.9-7.5,3.6-15.1,5.3-22.7c0.2-0.9,0.6-1.9,0.5-2.8c-0.1-2.1-1.5-5.2-0.5-6.1c1.6-1.6,4.5-2.4,6.9-2.8
	c3.5-0.6,7.1-0.8,10.7-0.6c4.2,0.3,5.8-1.9,6.6-5.5c1.9-8.5,3.8-17,5.9-25.5c1.4-5.8,1.5-6.1,7.5-5.9c9.7,0.4,19.5,0.8,29,2.3
	c16.7,2.7,32.5,8.7,47.3,17c6.8,3.8,6.7,3.8,5,11.3C1236.3,67.6,1234.2,77,1232,86.7z M1058,373c6.5,0,12.3-0.4,18,0.1
	c4.8,0.5,6.3-2.2,7.2-5.9c2.6-10.6,5.1-21.3,7.4-32c0.4-1.8,0.2-3.9-0.4-5.6c-1.8-5.3-5.6-7.9-11-7.7c-5.5,0.1-9.5,3.1-11,9.1
	c-3,11.5-5.7,23.1-8.5,34.7C1059.2,367.7,1058.7,369.8,1058,373z M1087.7,372.8c6.9,0,13-0.1,19.1,0.1c2.7,0.1,4.3-1,5-3.5
	c2.3-9.1,4.6-18.2,6.7-27.3c1-4.4-0.3-8.4-4.1-11.2c-7.2-5.5-16.2-1.9-18.6,7.7C1093,349.4,1090.6,360.5,1087.7,372.8z
	 M1117.1,372.9c5.6,0,10.4,0,15.3,0c8.1,0,8.2,0,10.1-8.5c1.4-6.3,3.1-12.6,3.6-18.9c0.4-5.9-3.6-9.4-9.6-9.9
	c-6.5-0.5-10.2,1.8-12.1,8.5C1121.7,353.3,1119.6,362.7,1117.1,372.9z M1170.1,372.5c1.4-5.5,2.9-11.1,4-16.7
	c1.4-6.8-2.5-12.5-8.9-13.8c-5.9-1.2-11.4,2.3-13.2,8.7c-1.9,7-3.5,14.2-5.3,21.8C1154.8,372.5,1162.2,372.5,1170.1,372.5z
	 M1160.3,238.4c1.8-6.7,3.3-12.2,4.6-17.9c0.6-2.5,1.1-5.2,0.7-7.7c-0.4-1.9-2.1-4.6-3.6-4.9c-1.6-0.4-3.9,1.5-5.7,2.7
	c-0.6,0.4-0.6,1.8-0.9,2.7c-1.8,7.1-3.7,14.3-5.6,21.8C1153.5,236.3,1156.5,237.2,1160.3,238.4z M1208.7,48.7
	c0.1-4.3-0.3-6.9-3.6-7.5c-3.2-0.6-5.7,0.2-6.6,3.9c-1.4,6-3.2,11.9-4.5,17.9c-0.4,1.7-0.4,4.7,0.4,5.1c2.5,1.2,5.4,1.6,8.2,2.1
	c0.4,0.1,1.2-0.7,1.3-1.2C1205.7,61.7,1207.4,54.4,1208.7,48.7z M1184,66.2c1.6-5.9,3-11.1,4.4-16.3c0.7-2.5,1.3-5,1.8-7.5
	c0.6-3.1-1.1-5.3-3.7-5.9c-1.7-0.4-4.1,0.8-5.7,2c-1.1,0.8-1.4,2.8-1.8,4.3c-1.8,6.8-3.6,13.6-5.5,20.8
	C1176.9,64.4,1180,65.2,1184,66.2z M1180.9,154.5c2.1-8.3,4-15.8,5.7-23.3c0.7-3.2-2-7.6-4.7-7.3c-2.1,0.3-5.1,2.3-5.6,4.2
	c-2.1,7.1-3.3,14.5-4.8,21.8c-0.1,0.5,0.5,1.1,0.8,1.8C1174.6,152.5,1177,153.3,1180.9,154.5z M1179.1,243.4c1.9-7.6,4-15,5.6-22.5
	c0.9-4.3-0.9-7.1-4-7.7c-2.9-0.6-5.5,1.5-6.8,5.6c-0.2,0.6-0.2,1.3-0.3,1.9c-1.2,5-2.4,10-3.7,15c-0.9,3.5,0.3,5.6,4,6.3
	C1175.3,242.3,1176.8,242.8,1179.1,243.4z M1126.6,295.3c0.2-4.3-0.3-7.3-3.8-8.1c-3.6-0.8-5.4,1.5-6.2,4.6
	c-1.8,6.5-3.5,13-5.1,19.6c-0.7,2.8,1,4.4,3.6,4.6c2.6,0.2,6.1,2.4,7.2-2.1C1123.9,307.3,1125.3,300.7,1126.6,295.3z M1141.7,188.1
	c1.5,0.8,2.6,1.6,3.8,2c5.3,1.8,6.4,1.3,7.7-3.7c1.6-5.9,3-11.9,4.3-17.9c0.7-3.2-0.6-5.8-3.7-7.1c-2.4-1-6.3,1.6-7.2,4.9
	C1144.8,173.6,1143.3,180.8,1141.7,188.1z M1148.5,323.4c2.4,0.8,4.8,2,7.2,2.3c1.1,0.2,3.2-1.1,3.5-2c2-7.1,3.9-14.3,5.2-21.6
	c0.3-1.5-1.7-4.2-3.4-5c-2.5-1.3-5.2-0.3-6.4,2.5c-0.9,2.1-1.6,4.2-2.1,6.4C1151.1,311.7,1149.9,317.3,1148.5,323.4z M1139.7,322.2
	c2.1-8.4,4.1-15.9,5.9-23.3c0.8-3.4-1-5.6-3.9-7c-2.4-1.1-5.6,0.5-6.6,4.1c-1.9,7.2-3.2,14.5-4.7,21.7c-0.1,0.5,0.5,1.1,0.9,1.8
	C1133.6,320.3,1136.1,321.1,1139.7,322.2z M1112.4,226.7c10.2,3.9,10.4,1.6,12.1-5.3c1.2-4.7,2.4-9.4,3.5-14.1
	c0.7-3.1,0.2-5.9-3-7.4c-2.5-1.2-6.6,0.9-7.5,4.5C1115.5,211.8,1114,219.3,1112.4,226.7z M1141.4,232.9c2.1-8,4.2-15.4,6-22.9
	c0.7-3.2-1.5-6.2-4.3-6.5c-3.3-0.4-5.7,1.1-6.5,4.5c-1.8,7.5-3.5,15-5.5,23.3C1134.7,231.8,1137.7,232.3,1141.4,232.9z
	 M1161.6,104.7c2.3,0.9,4.6,2.1,7,2.8c2,0.6,3.9-0.1,4.4-2.5c1.5-7.2,3.1-14.4,4.4-21.6c0.4-2.3-0.4-4.9-3.1-5.1
	c-2-0.1-4.4,0.8-5.9,2.1c-1.3,1.1-1.9,3.3-2.4,5.2C1164.5,91.7,1163.2,98,1161.6,104.7z M1197.4,249.7c1.6-6.4,3-11.7,4.2-17
	c0.6-2.5,1-5.1,1.1-7.6c0.1-2.8-1.3-5.2-4.2-5.7c-3.1-0.6-4.8,1.4-5.5,4.2c-1.4,5.6-2.8,11.3-4.2,16.9c-1.3,5.7-1.3,5.7,4.6,7.8
	C1194.5,248.7,1195.7,249.1,1197.4,249.7z M1209.6,119.2c2-8,3.9-15.4,5.5-22.9c0.8-3.9-1.7-7.7-5-8c-3.7-0.2-4.8,2.4-5.5,5.4
	c-1.6,7.1-3.3,14.1-5.1,21.4C1203.2,116.6,1206.1,117.8,1209.6,119.2z M1131.3,275.9c2-8.4,3.9-15.8,5.5-23.3
	c0.8-3.6-1.5-7.9-3.9-7.5c-2.2,0.4-4.4,2.3-5.9,4.1c-1.1,1.4-1.3,3.6-1.8,5.5c-1.4,5.9-2.7,11.7-4.2,17.9
	C1124.2,273.6,1127.2,274.5,1131.3,275.9z M1153.9,61.2c11,2.4,11,2.4,13.1-6.7c1.2-5,2.5-10.1,3.2-15.2c0.2-1.5-1.1-3.9-2.4-4.6
	c-1.3-0.7-3.9-0.5-5.1,0.4c-1.7,1.3-3,3.4-3.6,5.5C1157.2,47.4,1155.6,54.3,1153.9,61.2z M1152.9,103.9c1.9-8.3,3.5-15.4,5.3-22.5
	c0.7-2.7-0.4-4.2-2.3-5.7c-2.3-1.7-4.3-0.4-6.1,0.9c-0.9,0.7-1.7,2-2,3.1c-2,7.6-3.9,15.2-6,23.6
	C1146.1,103.6,1149.2,103.7,1152.9,103.9z M1196.8,89.5c0.1-3.9-0.7-6.6-4.4-7.2c-3.1-0.5-4.9,1.3-5.7,4.1
	c-1.8,6.5-3.6,13.1-5.3,19.7c-0.9,3.5,1.6,4.5,4.4,5.1c2.6,0.5,5.4,1,6.3-2.5C1193.9,102.1,1195.3,95.4,1196.8,89.5z M1119.5,144.3
	c0.6-0.4,3.8-1.2,4.3-2.9c2-6.4,3.5-13.1,4.5-19.7c0.3-1.7-1.1-4.5-2.6-5.4c-2.6-1.7-4.9,0.3-6.5,2.4c-0.8,1-1.4,2.2-1.7,3.5
	c-1.5,5.9-3,11.8-4.3,17.8C1112.5,143.2,1113.6,144.1,1119.5,144.3z M1179.2,198.2c2.4,1,4.7,2.2,7,2.8c2.5,0.6,4.3-0.1,4.5-3.3
	c0.1-1.9,1.1-3.7,1.5-5.5c0.9-5,2-10,2.5-15.1c0.3-2.8-1.5-5.3-4.5-5.1c-1.8,0.2-3.6,2-5.1,3.4c-0.8,0.8-1.1,2.3-1.4,3.5
	C1182.2,185.2,1180.8,191.4,1179.2,198.2z M1207.3,209c1.6-6,3.2-10.9,4.3-15.9c0.7-3.1,0.9-6.4,0.9-9.6c0-2.9-1.8-5.4-4.7-5.1
	c-1.7,0.2-4.2,2.2-4.7,3.9c-2.2,7.3-3.8,14.9-5.7,22.8C1200.7,206.4,1203.6,207.5,1207.3,209z M1130.4,187.3
	c0.5-0.4,2.5-1.1,2.8-2.2c1.9-7.2,3.6-14.4,4.8-21.7c0.2-1.3-1.4-3.8-2.8-4.4c-1.4-0.6-4-0.2-5.2,0.8c-1.6,1.4-2.7,3.6-3.2,5.7
	c-1.4,5-2.5,10-3.6,15.1C1122.1,185.7,1123.9,187.6,1130.4,187.3z M1168.9,285c2.1-8.1,4.1-15.4,5.8-22.8c0.8-3.3-1.5-7-4.5-7.5
	c-3.6-0.6-5.3,2.1-6.2,4.8c-1.3,4.3-2,8.7-3.1,13C1158.5,281.9,1158.5,281.9,1168.9,285z M1199.6,160.8c1.9-8.5,3.6-15.7,5.1-22.9
	c0.7-3.4,0-6.6-3.9-7.8c-2.7-0.8-5,1.1-6.3,5.7c-1.8,6.8-3.3,13.7-5.1,20.9C1192.7,158,1195.6,159.2,1199.6,160.8z M1170.5,196
	c2-7.8,4-14.9,5.6-22.1c0.9-4-0.7-7.1-3.6-7.8c-3.1-0.8-5.8,1-6.8,5.1c-1.8,7.1-3.4,14.3-5.3,22C1163.8,194.2,1166.8,195,1170.5,196
	z M1157.5,148.5c3.6,0.6,5.3-1.2,5.9-4.6c0.6-3.5,1.5-6.9,2.3-10.3c0.6-2.8,1.8-5.7,1.7-8.4c-0.1-1.8-1.6-4.3-3.1-5.2
	c-2.6-1.5-5,0.2-6.3,2.7c-0.8,1.4-1.3,2.9-1.7,4.5c-1.3,5-2.6,10-3.7,15C1151.2,147.2,1152.2,148.4,1157.5,148.5z M1221.4,78.4
	c2.1-8.1,4.3-15.7,6.1-23.4c0.7-3.1-2-7.1-4.8-7.4c-3.6-0.4-5.1,2.3-6,5.1c-1.5,5.2-2.6,10.6-4,15.8c-1.1,4.2,0.1,6.9,4.4,8.1
	C1218.3,77,1219.4,77.6,1221.4,78.4z M1112,271.6c2.1-8,4.3-15.7,6.2-23.4c0.7-3-1.6-7-4-6.7c-2.2,0.3-5.6,1.8-6.1,3.5
	c-2.4,7.5-3.9,15.4-5.8,23.2C1106,269.5,1108.7,270.4,1112,271.6z M1109.4,202.2c-1-1.3-2-3.8-3.6-4.3c-1.7-0.5-4.1,0.8-6,1.8
	c-1,0.5-1.6,2.1-1.9,3.3c-1.5,6-2.8,12-4.2,18c-0.8,3.2,1.5,3.8,3.7,4.5c2.5,0.8,5.6,1.8,6.6-1.6
	C1106.1,217.1,1107.5,210.1,1109.4,202.2z M1102.4,313c2-8.8,3.6-16.3,5.6-23.7c0.9-3.4-0.6-5-3.3-5.9c-2.7-0.9-5.2-0.1-6.6,2.6
	c-0.6,1.1-0.7,2.5-1,3.7c-1.6,6.6-3.2,13.1-4.9,20.1C1095.2,310.7,1098.2,311.7,1102.4,313z M1155.7,257.6c0.2-4.2-0.6-6.7-3.6-7.4
	c-3.5-0.9-5.6,1.1-6.4,4.3c-1.8,6.5-3.6,13.1-5.1,19.7c-0.7,2.8,1,4.2,3.6,4.6c2.5,0.4,5.7,1.6,6.7-1.8
	C1152.8,270.2,1154.3,263.2,1155.7,257.6z M1227.1,127.3c2.1-7.8,4.1-15.2,5.9-22.7c0.2-0.9,0.3-2.2-0.2-2.8c-1.5-1.9-3-4.7-5-5.2
	c-3-0.9-4.4,2.3-5.1,4.7c-1.6,5.6-2.8,11.3-4.2,16.9c-0.7,2.8-0.2,5.1,2.7,6.4C1223,125.4,1224.7,126.2,1227.1,127.3z M1083.3,264.5
	c2.9,0.9,4.6,1.9,6.5,2c1.3,0.1,3.5-0.7,3.8-1.5c2-7.4,4.1-14.9,5.3-22.5c0.6-3.4-4.1-5.7-7-3.6c-1.7,1.2-3.3,3.2-3.9,5.2
	C1086.2,250.7,1084.9,257.3,1083.3,264.5z M1187.5,290.1c1.8-7,3.5-13.5,5.1-20.1c0.4-1.5,0.6-3.5,0-4.8c-1-1.9-2.6-4.3-4.3-4.5
	c-1.5-0.2-3.7,1.9-5.1,3.4c-1,1.1-1.3,2.9-1.7,4.5c-0.9,3.8-1.5,7.6-2.3,11.3c-1.7,7.5-1.7,7.5,5.4,9.6
	C1185.2,289.8,1185.8,289.8,1187.5,290.1z M1083.4,308.6c2.1-8.2,4.1-15.3,5.7-22.5c0.7-3.1-0.2-5.9-3.8-6.7
	c-3.6-0.8-5.7,1.2-6.5,4.3c-1.9,7.1-3.5,14.3-5.2,21.8C1076.9,306.5,1079.6,307.3,1083.4,308.6z M1103,183.4
	c3.1,0.7,5.3,1.6,7.4,1.6c1.2,0,3.3-1.3,3.6-2.4c1.8-6.8,3.3-13.8,4.7-20.7c0.5-2.5-0.8-4.9-3.3-5c-1.9-0.1-4.1,1.2-5.7,2.5
	c-1.1,0.9-1.7,2.8-2.1,4.3C1106,169.9,1104.6,176.1,1103,183.4z M1166.9,329.1c3.6,0.5,5.5,1.1,7.3,0.9c1.4-0.1,3.6-1.1,3.9-2.1
	c1.9-6.5,3.5-13.1,4.8-19.8c0.7-3.4-1.5-5.7-4.5-6.6c-3.1-0.9-4.8,1.5-5.5,4.1C1170.8,313.1,1169,320.6,1166.9,329.1z M1217.2,168.1
	c1.1-4.1,2-7.2,2.8-10.3c1.1-4,2.4-8,3.2-12.1c0.7-3.5-2.2-7.9-5.2-8.2c-3.9-0.4-4.5,3-5.3,5.7c-1.5,5.3-2.7,10.6-4,16
	c-0.8,3.2-0.1,5.7,3.4,6.9C1213.6,166.4,1215,167.2,1217.2,168.1z M1132.3,143.7c2.6,0.8,5,1.9,7.4,2.2c1.2,0.1,3.3-1.2,3.6-2.3
	c1.8-6.8,3.4-13.8,4.8-20.7c0.5-2.3,0.2-4.7-2.7-5.4c-2.8-0.7-5.2,0-6.7,2.5c-0.7,1.1-1.2,2.3-1.5,3.5
	C1135.5,130.1,1133.9,136.7,1132.3,143.7z M1128,103.5c3.3,0.5,5.4-0.5,6.1-4.3c1-5,2.6-10,3.7-15c1.2-5.4,0.3-8.6-2.4-9.3
	c-2.5-0.6-6.2,2.2-7.9,6c-0.3,0.6-0.4,1.2-0.6,1.8c-1.3,5-2.7,9.9-3.9,14.9C1122,102,1123.2,103.4,1128,103.5z M1198.7,23.6
	c16.1,4.2,31.1,11.2,45.8,19.1c2.2-5.1,0.4-7.3-3.3-9.4c-26.5-14.9-54.9-21.7-85.2-21.2c-5.1,0.1-6.9,2.2-7.1,7.7
	C1166.2,19.4,1182.6,19.3,1198.7,23.6z"/>
</svg>
