<?xml version="1.0" encoding="utf-8"?>
<!-- Generator: Adobe Illustrator 26.0.1, SVG Export Plug-In . SVG Version: 6.00 Build 0)  -->
<svg version="1.1" id="Livello_1" xmlns="http://www.w3.org/2000/svg" xmlns:xlink="http://www.w3.org/1999/xlink" x="0px" y="0px"
	 viewBox="0 0 413.4 396.1" style="enable-background:new 0 0 413.4 396.1;" xml:space="preserve">
<style type="text/css">
	.st0{fill:url(#SVGID_1_);}
	.st1{fill:url(#SVGID_00000000904831830999324760000016019708001222111906_);}
	.st2{fill:url(#SVGID_00000121266024414405273530000010172997572991331201_);}
</style>
<linearGradient id="SVGID_1_" gradientUnits="userSpaceOnUse" x1="207.148" y1="389.3836" x2="207.148" y2="36.0727">
	<stop  offset="0" style="stop-color:#FFD000"/>
	<stop  offset="0.2237" style="stop-color:#EC9817"/>
	<stop  offset="0.4918" style="stop-color:#D65C30"/>
	<stop  offset="0.7201" style="stop-color:#C72F43"/>
	<stop  offset="0.8966" style="stop-color:#BE144E"/>
	<stop  offset="1" style="stop-color:#BA0A52"/>
</linearGradient>
<path class="st0" d="M273.3,66.2c0.1-0.4,0.3-0.9,0.4-1.3c0.6-6.9,1.1-13.9,1.6-20.8c0.1-1.7,0.4-3.5,0.7-5.2
	c0.3-1.8,1.4-2.8,2.9-2.9c1.5,0,2.7,1,3,2.8c0.3,1.6,0.6,3.2,0.7,4.8c0.6,6.8,1,13.6,1.6,20.4c0.6,6.7,1.4,13.3,2,20
	c0.3,2.8,0.6,5.7,0.8,8.5c0.3,4.6,0.8,9.2,0.8,13.8c0.1,13.2,0.1,26.4,0,39.7c0,2.5,0.7,4.1,2.7,5.7c3.6,2.8,6.9,6.1,10.3,9.2
	c3.4,3.1,6.8,6.1,10.6,9.5c0.1-1.2,0.3-2.1,0.3-3c0-8.7,0.1-17.5,0-26.2c-0.1-7.1,0.6-14.1,1.4-21.2c0.8-6.8,1.1-13.6,1.7-20.4
	c0.6-6.8,1.4-13.6,2.1-20.4c0.3-3.2,0.5-6.4,0.9-9.7c0.3-2.4,1.3-3.5,3-3.5c1.7,0,2.7,1.2,3,3.6c0.5,5.4,1,10.9,1.5,16.3
	c0.7,6.7,1.4,13.3,2.1,20c0.3,3.3,0.5,6.7,0.9,10c2.5,22,1.2,44.1,1.5,66.1c0,0.9,0.1,1.7,0,2.6c-0.1,1.5,0.4,2.6,1.5,3.6
	c7.3,6.4,14.5,12.9,22.1,19.6c0.1-1.3,0.3-2.2,0.3-3.1c0-6.9,0.1-13.7,0-20.6c-0.1-7.5,0.5-14.9,1.4-22.3c0.8-6.8,1.1-13.6,1.7-20.4
	c0.6-6.8,1.4-13.6,2.1-20.4c0.3-3.2,0.5-6.4,0.9-9.7c0.3-2.4,1.4-3.5,3.1-3.5c1.7,0,2.7,1.2,3,3.6c0.5,5.4,1,10.9,1.5,16.3
	c0.3,3.4,0.7,6.8,1.1,10.7c0.5-0.7,0.8-0.9,0.9-1.2c0.6-6.9,1.1-13.9,1.7-20.8c0.2-2,0.4-4,0.8-5.9c0.3-1.7,1.6-2.8,3.1-2.7
	c1.5,0.1,2.7,1.1,2.9,2.9c0.6,4.7,1,9.4,1.5,14.1c0.7,7.7,1.5,15.3,2.1,23c0.3,3.8,0.6,7.7,0.9,11.5c0.4,4.2,0.8,8.4,1.2,12.6
	c0.1,1.5,0.2,3,0.2,4.5c0,69.2,0,138.5,0,207.7c0,4.6-0.7,5.1-5.6,5.1c-64.4,0-128.7,0-193.1,0c-49.4,0-98.8,0-148.2,0
	c-6.3,0-6.5-0.2-6.5-6.6c0-68,0-136,0.1-204c0-5.4,0.8-10.9,1.3-16.3c0.3-3.2,0.6-6.4,0.9-9.7c0.5-6.8,1-13.6,1.6-20.4
	c0.6-6.9,1.4-13.8,2.1-20.8c0.1-0.5,0-1,0.2-1.5c0.4-1.3,1.3-2.2,2.7-2.2c1.6-0.1,2.7,0.8,3,2.3c0.4,1.6,0.6,3.2,0.8,4.8
	c0.3,3.8,0.6,7.7,0.9,11.5c0.3,3.8,0.7,7.6,1.1,12.1c0.6-0.8,0.9-1.1,1-1.4c0.6-6.8,1.1-13.6,1.7-20.4c0.2-2.1,0.4-4.2,0.8-6.3
	c0.3-1.5,1.2-2.4,2.8-2.5c1.5-0.1,2.8,1,3,2.7c0.4,2.3,0.6,4.7,0.8,7c0.4,4.4,0.9,8.9,1.3,13.3c0.3,3,0.6,5.9,0.8,8.9
	c0.6,6.8,0.8,13.7,1.7,20.4c2,15.3,1.2,30.6,1.4,45.9c0,0.4,0.1,0.7,0.2,1.6c2.6-2.2,5-4.2,7.4-6.3c4.7-4.1,9.2-8.3,14-12.4
	c1.8-1.5,2.4-3.2,2.4-5.5c-0.1-15.5-0.2-30.9,0-46.4c0.1-5.6,0.8-11.1,1.3-16.7c0.3-3.2,0.6-6.4,0.9-9.7c0.5-6.8,1-13.6,1.6-20.4
	c0.6-6.8,1.4-13.6,2.1-20.4c0.1-0.5,0-1,0.1-1.5c0.3-1.5,1.3-2.4,2.8-2.5c1.5-0.1,2.7,1,3.1,2.7c0.3,1.6,0.6,3.2,0.7,4.8
	c0.6,6.8,1,13.6,1.6,20.4c0.6,6.7,1.4,13.3,2,20c0.3,3,0.6,5.9,0.8,8.9c0.3,5.3,0.7,10.7,0.8,16c0.1,9.1,0,18.2,0,27.3
	c0,1.2,0,2.5,0,4.2c0.8-0.5,1.3-0.8,1.7-1.1c6.9-6.1,13.8-12.3,20.5-18.5c0.8-0.7,1.2-2,1.6-3.2c0.2-0.8,0.1-1.7,0.1-2.6
	c0-11.2,0.1-22.5,0-33.7c-0.1-7.1,0.5-14.2,1.4-21.2c0.5-3.8,0.6-7.7,0.9-11.5c0.6-6.9,1.4-13.8,2-20.8c0.4-3.7,0.6-7.4,0.9-11.1
	c0.2-2.6,0.4-5.2,0.8-7.8c0.2-1.8,1.5-2.8,2.9-2.8c1.5,0,2.8,1,3,2.8c0.6,5.2,1.1,10.4,1.6,15.6c0.4,3.9,0.7,7.8,1.1,12.2
	c0.5-0.6,0.9-0.8,0.9-1c0.3-4,0.6-7.9,1-11.9c0.4-4.8,0.9-9.6,1.5-14.5c0.2-2.1,1.4-3.2,3-3.1c1.6,0,2.7,1.1,3,3.2
	c0.6,5.3,1,10.6,1.5,16c0.4,4.1,0.9,8.1,1.3,12.2c0.3,3,0.6,5.9,0.8,8.9c0.6,6.7,1.2,13.4,1.6,20.1c0.4,8,0.5,15.9,0.8,23.9
	c0,0.4,0.1,0.7,0.3,1.5c1.7-1.3,3.3-2.4,4.7-3.7c6-5.4,12-10.9,18-16.3c8.3-7.5,16.7-14.9,25.2-22.3c2.5-2.2,2.9-2.1,5.4-0.1
	c3.2,2.6,6.3,5.3,9.3,8c6.1,5.5,12.1,11.1,18.2,16.6c6.6,5.9,13.2,11.7,20.2,18c0.2-1.2,0.3-1.9,0.4-2.7c0-3,0.1-6,0-9
	c-0.1-6.7,0.5-13.4,1.4-20.1c0.5-3.8,0.6-7.7,0.9-11.5c0.4-4.2,0.9-8.4,1.3-12.6c0.3-3.3,0.6-6.7,0.9-10c0.5-5.4,1-10.9,1.5-16.3
	c0-0.5,0-1,0.2-1.5c0.5-1.3,1.3-2.1,2.7-2.2c1.6,0,2.7,0.8,3,2.3c0.4,1.9,0.7,3.9,0.8,5.9c0.6,6.9,1.1,13.9,1.6,20.8
	c0,0.4,0.2,0.7,0.3,1C272.9,66.2,273.1,66.2,273.3,66.2z M207.1,85.3c-4.3,3.7-8.5,7.4-12.7,11.1c-8.4,7.6-16.8,15.2-25.2,22.8
	c-3.3,3-6.7,6-10.2,8.8c-2,1.6-2.8,3.5-2.8,6.1c0.1,81.7,0.1,163.4,0.1,245.1c0,1.2,0.1,2.4,0.2,3.8c1.9,0,3.6,0,5.7,0
	c0-1.7,0-3.2,0-4.6c0-19.1,0-38.2,0-57.2c0-12.9,4.4-23.8,13.7-32.8c11.8-11.4,25.8-15.2,41.6-11.7c19.7,4.4,34.8,22.9,34.6,43.7
	c-0.1,19.5,0,38.9,0,58.4c0,1.4,0.1,2.9,0.2,4.6c2.2-0.1,3.8-0.2,5.7-0.3c0-1.6,0-2.7,0-3.8c0-81.7,0-163.4,0.1-245.1
	c0-2.6-0.8-4.4-2.8-6.1c-8.4-7.3-16.6-14.6-24.9-22c-6.1-5.5-12.1-11.1-18.2-16.6C210.6,88.1,208.9,86.8,207.1,85.3z M180.5,323.7
	c0,19.9,0,39.5,0,59.3c17.9,0,35.5,0,53.3,0c0-19.9,0-39.5,0-59.3C216,323.7,198.5,323.7,180.5,323.7z M137.8,383.1
	c0.2-0.6,0.4-0.9,0.4-1.2c0-90.2,0.1-180.4,0.1-270.5c0-0.9-0.1-1.7-0.2-2.6c0-0.1-0.1-0.2-0.2-0.3c-0.1-0.1-0.2-0.2-0.2-0.3
	c-1.6,0-3.2,0-4.6,0c-0.2,0.4-0.5,0.7-0.5,0.9c-0.1,90.2-0.1,180.3-0.1,270.5c0,1,0.1,2,0.2,3c0,0.1,0.1,0.2,0.2,0.3
	c0.1,0.1,0.2,0.2,0.2,0.3C134.6,383.1,136.2,383.1,137.8,383.1z M144.8,108.2c-0.2,0.6-0.4,0.9-0.4,1.2c0,90.2,0,180.4,0,270.5
	c0,0.9,0.1,1.7,0.2,2.6c0,0.1,0.1,0.2,0.2,0.3c0.1,0.1,0.2,0.2,0.5,0.5c0.9,0,2,0,3.1,0c0.5,0,0.9-0.2,1.6-0.3c0-91.6,0-183,0-274.8
	C148.1,108.2,146.4,108.2,144.8,108.2z M264.3,108.2c0,91.8,0,183.2,0,274.9c1.9,0,3.6,0,5.4,0c0-91.7,0-183.2,0-274.9
	C267.9,108.2,266.4,108.2,264.3,108.2z M276.3,108.2c0,91.7,0,183.2,0,274.9c1.9,0,3.6,0,5.4,0c0-91.7,0-183.2,0-274.9
	C279.9,108.2,278.3,108.2,276.3,108.2z M90.9,138.1c-0.2,0.6-0.4,0.9-0.4,1.2c0,80.1,0,160.1,0,240.2c0,1,0.1,2,0.2,3
	c0,0.1,0.1,0.2,0.2,0.3c0.1,0.1,0.2,0.2,0.2,0.3c1.6,0,3.2,0,4.7,0c0.2-0.6,0.4-0.9,0.4-1.2c0-80.2,0.1-160.4,0.1-240.6
	c0-0.9-0.1-1.7-0.2-2.6c0-0.1-0.1-0.2-0.2-0.3c-0.1-0.1-0.2-0.2-0.3-0.3C94,138.1,92.5,138.1,90.9,138.1z M318,138.1
	c0,80.6,0,160.6,0,240.7c0,1.2,0.1,2.5,0.2,3.7c0,0.1,0.1,0.2,0.2,0.3c0.1,0.1,0.2,0.2,0.6,0.5c1.4-0.1,3-0.1,4.9-0.2
	c0-80.7,0-160.9,0-241c0-1.1-0.1-2.2-0.2-3.3c0-0.1-0.1-0.2-0.2-0.3c-0.1-0.1-0.2-0.2-0.3-0.3C321.6,138.1,320,138.1,318,138.1z
	 M102.4,259.1c0.3,0.1,0.5,0.3,0.8,0.4c2.3-1.8,4.6-3.7,6.9-5.5c3.9-3.2,4.7-3.2,8.6,0c2.3,1.9,4.6,3.6,7.1,5.6
	c0.7-4.8,0.5-98.4-0.2-101.1c-1,0.7-1.9,1.2-2.7,1.9c-5.9,5.3-11.7,10.8-17.7,16c-2.2,1.9-2.9,4-2.9,6.8c0.1,24.1,0.1,48.1,0.1,72.2
	C102.4,256.7,102.4,257.9,102.4,259.1z M288.3,158.2c0,33.9,0,67.5,0,101.6c2.9-2.3,5.3-4.1,7.7-6.1c3.3-2.8,4.3-2.8,7.8-0.1
	c0.5,0.4,0.9,0.9,1.4,1.2c2,1.6,4.1,3.1,6.5,5c0.1-1.5,0.3-2.5,0.3-3.4c0-24.7,0-49.4,0.1-74c0-2.3-0.7-4-2.4-5.5
	c-6.1-5.5-12.2-11-18.3-16.5C290.5,159.6,289.5,159.1,288.3,158.2z M37.1,180c-0.2,0.4-0.5,0.7-0.5,0.9
	c-0.1,66.2-0.1,132.4-0.1,198.7c0,1,0.1,2,0.2,3c0,0.1,0.1,0.2,0.2,0.3c0.1,0.1,0.2,0.2,0.3,0.3c1.6,0,3.1,0,4.7,0
	c0.2-0.5,0.4-0.9,0.4-1.2c0-66.1,0.1-132.2,0.1-198.3c0-1-0.1-2-0.2-3c0-0.1-0.1-0.2-0.2-0.3c-0.1-0.1-0.2-0.2-0.3-0.3
	C40.1,180,38.6,180,37.1,180z M48.7,180c0,67.8,0,135.3,0,203c1.9,0,3.6,0,5.4,0c0-67.8,0-135.3,0-203C52.3,180,50.6,180,48.7,180z
	 M360.1,180c-0.1,1.2-0.2,2-0.2,2.7c0,66.3,0,132.7,0.1,199c0,0.2,0.1,0.5,0.2,0.7c0,0.1,0.1,0.2,0.2,0.3c0.1,0.1,0.2,0.2,0.6,0.5
	c1.4-0.1,3-0.1,4.7-0.2c0.1-1.3,0.2-2.2,0.2-3.1c0-66.2,0-132.4,0-198.7c0-0.2-0.1-0.5-0.2-0.7c0-0.1-0.1-0.2-0.2-0.3
	c-0.1-0.1-0.2-0.2-0.3-0.3C363.5,180,362,180,360.1,180z M377.3,383.1c0.2-0.6,0.4-0.9,0.4-1.2c0-66.2,0.1-132.4,0.1-198.7
	c0-0.9-0.1-1.7-0.2-2.6c0-0.1-0.1-0.2-0.2-0.3c-0.1-0.1-0.2-0.2-0.2-0.3c-1.6,0-3.2,0-4.6,0c-0.2,0.4-0.5,0.7-0.5,0.9
	c-0.1,66.2-0.1,132.4-0.1,198.7c0,1,0.1,2,0.2,3c0,0.1,0.1,0.2,0.2,0.3c0.1,0.1,0.2,0.2,0.2,0.3
	C374.2,383.1,375.7,383.1,377.3,383.1z M84.2,195.4c-7.7,6.9-14.8,13.3-21.9,19.6c-1.5,1.3-1.8,2.8-1.8,4.6c0,12.5,0,24.9,0,37.4
	c0,0.8,0.2,1.6,0.4,2.9c2.8-2.3,5.2-4.2,7.6-6.2c3.6-2.9,4.6-2.8,8.1,0.1c2.4,2,4.8,3.8,7.6,6C84.2,238.2,84.2,217.2,84.2,195.4z
	 M330.1,195.4c0,21.8,0,42.8,0,64.1c0.7-0.4,1.1-0.5,1.5-0.8c2.3-1.8,4.6-3.7,7-5.6c2.4-1.9,3.4-1.9,6-0.2c0.9,0.6,1.7,1.4,2.6,2.1
	c2,1.5,4,3,6.2,4.6c0.2-0.7,0.4-1,0.4-1.2c0-13.2,0-26.4,0.1-39.6c0-1.7-0.7-2.8-1.8-3.9c-2.9-2.6-5.7-5.2-8.6-7.8
	C339.2,203.4,334.9,199.7,330.1,195.4z M84.1,327.5c0-9.4,0-18.4,0-27.7c-7.9,0-15.5,0-23.4,0c0,9.3,0,18.4,0,27.7
	C68.6,321.9,76.2,321.9,84.1,327.5z M126,327.5c0-9.4,0-18.4,0-27.7c-7.9,0-15.5,0-23.4,0c0,9.3,0,18.4,0,27.7
	C110.4,321.9,118.6,322.1,126,327.5z M288.2,327.5c7.9-5.6,15.6-5.6,23.7,0.1c-0.2-9.5,0.2-18.7-0.2-27.7
	c-5.1-0.7-20.7-0.5-23.5,0.3C288.2,309.2,288.2,318.2,288.2,327.5z M330.5,299.8c-0.7,3.6-0.7,24.6,0,27.5
	c7.7-5.5,15.4-5.3,23.1,0.1c0-9.4,0-18.4,0-27.7C345.7,299.8,338.1,299.8,330.5,299.8z M137,101.6c0.7-3.4-0.7-21.2-2.1-23.9
	c-0.1,7.9-2.3,15.7-1.8,23.9C134.7,101.6,135.9,101.6,137,101.6z M148.8,101.7c0.9-2.7-0.3-20.8-1.9-23.9
	c-0.3,7.9-2.2,15.7-1.8,23.9C146.6,101.7,147.7,101.7,148.8,101.7z M268.6,101.7c0.9-2.7-0.3-20.8-1.9-23.9
	c-0.3,7.9-2.2,15.7-1.8,23.9C266.4,101.7,267.5,101.7,268.6,101.7z M279.5,77.7c-0.3,0-0.7,0-1,0.1c0,7.9-1.9,15.7-1.6,23.8
	c1.6,0,2.9,0,4.7,0C280.8,93.3,280.1,85.5,279.5,77.7z M95.4,131.5c0.4-2.9,0.3-5.6-0.2-8.3c-0.4-2.6-0.4-5.2-0.7-7.8
	c-0.2-2.6-0.5-5.2-0.8-7.8c-0.3,0-0.7,0-1,0c0.2,8-2,15.8-1.5,23.9C92.9,131.5,94,131.5,95.4,131.5z M323.3,131.6
	c-0.3-3.1-0.5-5.8-0.7-8.5c-0.2-2.6-0.2-5.2-0.7-7.8c-0.5-2.5,0.2-5.3-1.1-8.4c-1.5,6.3-2.4,22-1.5,24.7
	C320.4,131.6,321.5,131.6,323.3,131.6z M39.9,149.6c-0.3,0-0.6,0-1,0c-0.1,7.9-2,15.7-1.6,24.1c1.7-0.1,3-0.1,4.7-0.2
	C41.3,165.1,40.6,157.3,39.9,149.6z M365.3,173.5c-0.7-8.3-1.4-16.1-2.1-24.7c-1.4,3.6-2.8,21.4-2.1,24.7
	C362.2,173.5,363.4,173.5,365.3,173.5z M51.4,149.6c-0.5,8-2.6,15.8-2.1,23.9c1.1,0.1,1.7,0.3,2.3,0.2c0.6,0,1.2-0.2,2.1-0.4
	C53.8,165.2,52.2,157.5,51.4,149.6z M374.8,149.6c-0.4,8-2.7,15.8-2.1,24.1c1.7-0.1,2.9-0.2,4.3-0.2
	C377.2,165.2,375.5,157.4,374.8,149.6z M174.2,215.7c-2.2,0-3.9,0-5.6,0c-1,0-2,0-3,0c-1.5,0-2.7-0.7-3.2-2.2
	c-0.5-1.5,0.2-2.7,1.5-3.5c2.9-1.8,5.8-3.4,8.7-5.1c10.2-5.8,20.4-11.6,30.4-17.5c2.8-1.6,5.1-1.9,7.9-0.2
	c9.5,5.6,19.2,11.1,28.8,16.6c2.9,1.7,5.8,3.4,8.7,5c0.8,0.4,1.5,0.9,2.2,1.4c1.1,0.8,1.8,2.1,1.1,3.2c-0.6,0.9-1.7,1.9-2.8,2.1
	c-1.7,0.4-3.5,0.1-5.2,0.1c-1.1,0-2.2,0.1-3.7,0.3c0,1.5,0,2.9,0,4.2c0,14.3,0,28.7,0,43c0,0.9,0,1.7,0,2.6
	c-0.2,2.6-1.1,3.6-3.6,3.8c-0.6,0-1.2,0-1.9,0c-18.3,0-36.7,0-55,0c-0.5,0-1,0-1.5,0c-2.9-0.2-3.8-1-4-3.8c-0.1-0.9,0-1.7,0-2.6
	c0-14.2,0-28.4,0-42.6C174.2,219.2,174.2,217.8,174.2,215.7z M221.6,263.4c0.2-0.7,0.4-0.9,0.4-1.1c0-10.8,0.2-21.7,0-32.5
	c-0.1-3.9-1.8-7.4-4.7-9.9c-4.6-4-10-5.5-15.9-2.8c-5.9,2.7-9,7.4-9.1,13.8c-0.2,9.8-0.1,19.7,0,29.5c0,0.9,0.2,1.9,0.3,3
	C202.4,263.4,211.9,263.4,221.6,263.4z M186.2,157.1c0,5.9,0,11.7,0,17.6c0,4.4,0.7,5.1,4.9,5.1c10.7,0,21.5,0,32.2,0
	c4.2,0,4.9-0.7,4.9-5.1c0-11.2,0.2-22.5-0.1-33.7c-0.3-11.9-6.4-20.4-16.8-25.8c-2.8-1.4-5.4-1.5-8.2,0
	c-10.4,5.5-16.5,13.9-16.9,25.8C186,146.3,186.2,151.7,186.2,157.1C186.2,157.1,186.2,157.1,186.2,157.1z M123.4,227.6
	c0.3-6.1-0.5-12.2-2.3-18c-1-3.3-2.2-6.6-3.8-9.7c-1.5-3.1-4.1-3-5.9,0c-0.1,0.2-0.2,0.4-0.3,0.7c-3.2,6.6-5.1,13.5-5.5,20.7
	c-0.4,6.7-0.2,13.4-0.1,20.2c0,3.1,1,4,4,4.1c3.2,0.1,6.5,0.1,9.7,0c3.3-0.1,4.2-0.9,4.3-4.2c0.1-3.4,0-6.7,0-10.1
	C123.4,230.1,123.3,228.9,123.4,227.6z M306.6,209.4c-1-3.3-2.3-6.6-3.8-9.7c-1.5-2.9-4-2.7-5.8,0c-0.2,0.3-0.3,0.7-0.5,1
	c-3.1,6.4-5,13.3-5.5,20.4c-0.4,6.8-0.2,13.7-0.1,20.5c0,3,1,3.9,4.2,3.9c3.1,0.1,6.2,0.1,9.3,0c3.6-0.1,4.4-0.9,4.5-4.4
	c0.1-3.2,0-6.5,0-11.2C309.4,224.1,308.9,216.6,306.6,209.4z"/>
<linearGradient id="SVGID_00000168812633112934368200000009927323710110278291_" gradientUnits="userSpaceOnUse" x1="-562.8446" y1="393.9344" x2="-562.8446" y2="126.9876">
	<stop  offset="0" style="stop-color:#FFD000"/>
	<stop  offset="0.2237" style="stop-color:#EC9817"/>
	<stop  offset="0.4918" style="stop-color:#D65C30"/>
	<stop  offset="0.7201" style="stop-color:#C72F43"/>
	<stop  offset="0.8966" style="stop-color:#BE144E"/>
	<stop  offset="1" style="stop-color:#BA0A52"/>
</linearGradient>
<path style="fill:url(#SVGID_00000168812633112934368200000009927323710110278291_);" d="M-521.9,392.7c-5,0.1-9.9,0.2-14.9,0.3
	c-0.2-0.1-0.4-0.2-0.7-0.3C-532.3,392.7-527.1,392.7-521.9,392.7z M-363.6,347.1v3.1c-0.3,1.3-0.8,2.6-0.9,3.8
	c-0.2,4.2-0.2,8.4-0.2,12.5c0,5,0,10.1-0.1,15.1c0,0.6-0.1,1.4-0.5,1.6c-1.9,1.2-4.1,1.9-6.5,2.2c0-0.8-0.1-1.5-0.1-2.1
	c0-5,0-10,0-15c0-2.7-0.1-5.4-0.4-8.1c-0.1-1.3-0.7-2.5-1.1-3.7c-0.3-0.3-0.6-0.6-1.1-1.1c-0.4,1-0.8,1.6-1,2.4
	c-0.4,2.4-0.8,4.7-0.9,7.1c-0.1,6.5,0,13,0,19.5c0,0.7-0.1,1.4-0.1,2.2c-2.6,0.6-5.2,1.1-7.9,1.1c0-0.9-0.1-1.6-0.1-2.3
	c0-6.9,0-13.9-0.1-20.8c0-2.3-0.5-4.6-0.9-6.8c-0.2-0.9-0.7-1.8-1.4-2.5c-1-1.1-2.4-0.9-3.2,0.4c-0.4,0.7-0.9,1.6-1,2.4
	c-0.4,2.2-0.9,4.4-0.9,6.6c-0.1,7.4,0,14.8,0,22.2c0,1.8-0.1,1.9-1.9,2c-0.7,0-1.4,0.1-2.1,0.2c-1.1,0.1-2.2,0.1-3.3,0.2
	c-0.7,0-1.4,0-2.2,0c-0.1-0.3-0.2-0.5-0.3-0.6c0-0.6-0.1-1.1-0.1-1.7c0-7.8,0-15.5-0.1-23.3c0-2.5-0.4-4.9-1.6-7.1
	c-0.7-1.4-1.9-2.3-3.5-2.3c-1.6,0-2.4,1.2-3.1,2.4c-0.2,0.4-0.4,0.9-0.6,1.4c-0.8,2.2-1.2,4.5-1.2,6.9c0,7.6,0,15.1,0,22.7
	c0,0.6-0.1,1.2-0.1,1.9c-2.3,0.1-4.6,0.1-6.8,0.2c0-0.7,0-1.3,0-1.9c-0.1-8.7-0.1-17.5-0.2-26.2c0-2.4-0.6-4.7-2-6.7
	c-2.2-3.2-6.6-3.2-8.7,0.1c-1.5,2.4-2.3,5-2.3,7.8c0,8.5,0,17.1,0,25.6c0,0.5,0,0.9,0,1.5c-2.8,0.1-5.6,0.2-8.4,0.2
	c0-0.7-0.1-1.3-0.1-1.9c0-8.2,0-16.5,0-24.7c0-1.3-0.1-2.7-0.4-4c-0.3-1.9-0.9-3.8-2.1-5.4c-2.7-3.3-7.7-3.1-10,0.5
	c-1.5,2.4-2.3,5.1-2.3,8c0.1,8.7,0.1,17.4,0.2,26.1c0,0.5-0.1,1.1-0.1,1.8c-4.2,0.1-8.3,0.2-12.5,0.4h-1.3c0-0.7,0-1.4,0-2.1
	c0.1-7.6,0.2-15.1,0.2-22.7c0-3-0.2-6.1-1.2-9.1c-2.3-6.5-12-7.4-15.5-3.6c-2.2,2.4-3.7,5-3.6,8.3c0.1,9.1,0.1,18.2,0.1,27.3
	c0,0.7-0.1,1.5-0.1,2.4c-3.6,0.3-7.1,0.3-10.8,0.2c0-1,0-1.6,0-2.3c0-5.8,0.1-11.7,0-17.5c-0.1-3.7-0.2-7.4-0.6-11
	c-0.3-3-1.3-5.8-3.9-7.5c-3.9-2.6-8.2-3.2-12.4-1.1c-3.8,1.9-6,5.2-6,9.6c0,9.5,0.1,18.9,0.1,28.4c0,1.7-0.1,1.8-1.8,1.8
	c-3.6,0-7.3,0-10.9,0c-0.4,0-0.9-0.1-1.5-0.1c0-0.9,0-1.7,0-2.5c-0.1-10.3-0.1-20.5-0.4-30.8c-0.1-3.7-1.4-7.1-4.8-9.3
	c-2.4-1.5-5-1.9-7.8-2c-6.8-0.3-10.4,4.4-11.8,8.7c-0.1,0.4-0.2,0.9-0.2,1.4c0,11.1,0.1,22.3,0.2,33.4c0,0.5,0.1,1.1,0.1,1.7h1.2
	c-0.5,0.3-1,0.5-1.5,0.8c-4.9,0.1-9.7,0.2-14.6,0.2l0,0c-0.6-0.4-1.3-0.8-2-1.1c0,0,0.1,0,0.1,0c0.1-0.7,0.1-1.3,0.1-1.8
	c-0.1-9-0.1-18.1-0.3-27.1c0-2.8-0.4-5.6-1.4-8.3c-1.3-3.1-3.5-5.3-6.8-6.1c-1.6-0.4-3.3-0.6-5-0.6c-6-0.1-11.4,5.4-11.4,11.4
	c0,10.2,0,20.4,0.1,30.6c0,1.8,0.1,1.9,1.8,1.9c0,0,0,0,0,0c-0.7,0.4-1.4,0.8-2.1,1.2c0,0,0,0,0,0c-4,0-8,0-12,0
	c-0.9-0.5-1.9-0.9-2.9-1.3c0.9-0.1,0.9-0.5,0.9-2c0-8.3,0.1-16.6-0.1-24.8c0-2.8-0.3-5.7-0.9-8.5c-0.9-4.3-3.7-6.6-8.2-7.3
	c-4.7-0.7-8.2,0.9-10.4,4.8c-0.8,1.5-1.7,2.9-1.7,4.7c0.2,7.5,0.4,15,0.6,22.5c0,1,0.1,2,0.1,3.1c0,2.4,0,4.8,0,7.4
	c-4.4-0.1-8.7-0.1-13-0.5c0-0.9-0.1-1.6-0.1-2.3c0-8.2,0-16.3-0.1-24.5c0-1.9-0.1-3.9-0.3-5.8c-0.6-5.2-4.3-8.4-9.4-8.6
	c-2.6-0.1-4.4,1.1-5.6,3.3c-1.2,2.1-1.7,4.3-1.6,6.8c0.2,9.2,0.4,18.5,0.6,27.7c0,0.7-0.1,1.5-0.1,2.4c-4.2-0.3-8.2-0.6-12.3-0.8
	c0-1,0-1.7,0-2.4c-0.1-8.7-0.1-17.5-0.3-26.2c-0.1-3.2-1.1-6.1-3.9-8.1c-3.1-2.1-7.2-1.6-9,1.1c-1.3,1.9-1.8,4.1-1.8,6.4
	c0.2,8.8,0.4,17.7,0.5,26.5c0,0.5-0.1,1.1-0.1,1.7c-2.7-0.1-5.1-0.2-7.7-0.3c-0.1-0.8-0.2-1.4-0.2-2c-0.1-3.3-0.1-6.5-0.2-9.8
	c-0.1-4.3-0.1-8.7-0.5-13c-0.2-2.5-0.7-5.1-1.6-7.5c-1.2-3.4-3.8-4.2-7-2.5c-1.3,0.7-2.1,1.9-2.4,3.2c-0.4,1.8-0.7,3.6-0.7,5.4
	c0,7.9,0.2,15.7,0.3,23.6c0,0.6,0,1.2,0,1.9c-2.4-0.2-4.6,0.2-6.9-0.5c0-0.6-0.1-1-0.1-1.5c-0.1-4.3-0.1-8.6-0.2-12.9
	c0-4.3,0-8.6-0.2-12.9c0-1.3-0.5-2.6-1.1-3.8c-0.9-1.7-2.5-2.2-4.3-2c-1.6,0.2-2.1,1.6-2.3,2.9c-0.3,1.6-0.4,3.3-0.4,5
	c0,7.6,0,15.1,0.1,22.7c0,0.7-0.1,1.4-0.1,2h-5c0-0.8,0-1.4,0-2c0-5.6,0.1-11.1,0.1-16.7c0-2.5,0.1-5-0.1-7.5c-0.1-1.3-0.5-2.7-1-4
	c-0.3-0.7-1.2-1.5-1.8-1.5c-1-0.1-1.3,1-1.5,1.9c-0.2,1.1-0.4,2.3-0.4,3.5c0,7,0.1,14,0.2,21c0,1.3,0,2.7,0,4c0,0.9-0.4,1.3-1.3,1.3
	c-0.9,0-1.8,0-2.8-0.1c-1.6-0.1-1.7-0.2-1.8-1.8c0-0.4,0-0.7,0-1.1c0.1-6.3,0.2-12.7,0.2-19c0-1.9-0.3-3.8-0.6-5.6
	c-0.1-0.6-0.6-1.5-1.1-1.6c-0.5-0.1-1.2,0.5-1.7,1c-1.1,1.3-1.7,2.7-1.6,4.5c0.1,7.1,0,14.1,0,21.2c0,0.7-0.1,1.4-0.2,2h-8.7
	c-0.1-0.8-0.1-1.4-0.1-2c0.1-9.4,0.1-18.7,0.2-28.1c0-0.7-0.1-1.6-0.5-2.2c-0.7-1.2-1.7-2.3-2.5-3.5v-2.5c1.1-1.1,2.6-2.1,3.1-3.5
	c0.7-2.1,1-4.4,1-6.6c-0.1-6.1-0.4-12.3-0.6-18.4c0-1.3-0.3-2.4-1-3.5c-0.7-1.3-1.3-2.6-1.8-4c-1.5-4.7-0.3-8.8,3.6-11.9
	c0.8-0.7,1.2-1.4,1.2-2.5c0-4.6,0.2-9.2,0.2-13.8c0-0.9-0.3-1.9-0.7-2.7c-1.6-2.9-2.9-5.9-3-9.2c-0.1-3,0.1-6.1,2.3-8.5
	c2.6-2.9,5.2-5.9,8.1-8.6c9.9-9,21.1-16.3,32.6-23c11.8-6.9,24.4-12.1,37.2-16.9c10.5-3.9,21.3-7.2,32.2-9.8
	c14.3-3.4,28.7-6.1,43.1-8.8c1-0.2,1.6,0.2,2.3,0.8c2.7,2.2,3.7,4.9,3.3,8.3c-0.3,2.4-0.1,4.9-0.1,7.3c-0.7,0.2-1.2,0.4-1.7,0.5
	c-0.5,2.2-0.6,2.7,0.9,4.1c3.4,3.3,5.2,7.4,6.4,12c1.5,5.9,3.5,11.6,5.2,17.5c0.3,0.9,0.6,1.6,1.7,1.5c2.6-0.1,5.2-0.2,7.8-0.3
	c0.4,0,1-0.2,1-0.4c0.3-1.3,1.3-1.1,2.2-1.1c1.5-0.1,3-0.2,4.4-0.3c0.5,0,1.1,0.1,1.5,0.1c1.6,3.2,3.1,6.2,4.5,9.3
	c0.5,1,0.8,2.2,0.8,3.4c0,6.6,0,13.3-0.4,19.9c-0.2,3.9,0.5,7.3,2,10.8c3.3,8.2,6.6,16.5,9.9,24.8c0.7,1.7,0.7,1.8,2.5,1.8
	c7.7-0.1,15.3-0.2,23-0.2c8.5-0.1,17.1-0.1,25.6-0.1c1.6,0,1.7-0.1,1.8-1.8c0.1-2.7,0.1-5.3,0.3-8c0.2-3.8-0.4-7.3-2.3-10.6
	c-2.9-5.1-8.6-7.7-13.7-6.1c-5,1.5-7.8,5.2-9.2,10.1c-0.9,3.1-0.6,6.3-0.5,9.4c0,0.9,0,1.8,0,2.7c-1.5,0.5-9.9,0.5-11.5,0
	c0-0.9,0-1.9,0-2.9c0-1.9,0.2-3.8,0.1-5.7c-0.1-3-0.9-5.8-2.7-8.3c-3.9-5.3-10.3-5.3-14.1,0c-0.4,0.5-0.7,1-1.2,1.7
	c-0.3-0.7-0.5-1.2-0.6-1.6c-1.1-3.1-2.1-6.3-3.1-9.5c-0.3-1-0.5-2-0.5-3c0.1-5.8,0.2-11.5,0.4-17.3c0.1-2.2,0.2-2.4,2.4-2.6
	c0.1,0,0.2,0,0.3,0c5.3-0.1,10.6-0.3,15.9-0.4c5.8-0.1,11.6-0.2,17.5-0.4c1.7,0,3.4-0.2,5.3-0.3c-0.1-0.7-0.1-1.2-0.2-1.7
	c-0.2-1.1-0.1-2,0.9-2.7c0.4-0.4,0.6-1.1,0.7-1.8c0.3-1.5,0.4-3,0.6-4.5c0.5-2.5,1.2-3.1,3.7-3c9.9,0.3,19.7,0.4,29.6,0.9
	c6.8,0.3,13.7,0.9,20.5,1.6c7.1,0.7,14.2,1.6,21.3,2.7c7.9,1.2,15.8,2.4,23.5,4.4c14.8,3.7,28.3,10.4,41.1,18.6
	c4.4,2.8,7.7,6.6,9.6,11.4c0.3,0.8,0.5,1.8,0.4,2.7c-0.1,4.6-0.2,9.3-0.3,13.9c0,0.6,0.2,1.4,0.6,1.9c0.9,1.1,1.2,2.3,1,3.7
	c-0.4,3.3-0.7,6.7-0.8,10.1c-0.1,6.4,0.1,12.9-0.1,19.3C-365.5,342.2-364.7,344.7-363.6,347.1z M-748.2,321.7
	c-0.1-1.7-0.5-3.4-0.9-5.1c-0.2-0.9-0.6-2-1.7-2c-1.2,0-1.6,1.1-1.8,2c-0.4,1.7-0.9,3.5-0.9,5.2c-0.1,4.6-0.1,9.3-0.1,13.9
	c0,0.5,0.1,1,0.2,1.6c1.4-0.4,2.6-0.7,3.8-1c1-0.2,1.4-0.8,1.4-1.9C-748.1,330.3-748,326-748.2,321.7z M-745.3,289.8
	c-0.1-3.6,0-7.1-0.1-10.7c0-1.5-0.3-3-0.6-4.5c-0.2-0.7-0.6-1.4-1-2c-0.6-0.7-1.4-0.7-1.9,0c-0.5,0.6-0.9,1.3-1,2
	c-0.3,1.5-0.7,3-0.7,4.5c0,3.4,0.2,6.8,0.4,10.2c0.1,1.6,0.2,3.2,0.3,5.2c1.4-0.9,2.4-1.7,3.4-2.3
	C-745.6,291.7-745.3,290.9-745.3,289.8z M-737.1,313.7c-0.1-1.9-0.7-3.8-1.4-5.6c-1-2.2-2.7-2.2-3.9-0.1c-1,1.7-1.4,3.5-1.5,5.4
	c0,6.8,0,13.6,0,20.3c0,0.2,0.1,0.5,0.2,0.9c2-0.5,4-1.1,5.9-1.6c0.7-0.2,0.8-0.9,0.8-1.5C-737.1,325.6-737,319.7-737.1,313.7z
	 M-733.2,264.9c-0.1-1.8-0.8-3.7-1.5-5.4c-0.9-1.9-2.5-1.9-3.6-0.1c-0.2,0.4-0.5,0.8-0.6,1.2c-0.8,2-1.1,4.1-1.1,6.3
	c0,6.3,0,12.7,0.1,19c0,0.5,0,1,0.1,1.9c2.3-1.3,4.3-2.5,6.3-3.7c0.3-0.2,0.5-0.8,0.5-1.2C-733.1,276.9-733,270.9-733.2,264.9z
	 M-721.4,327.6c0.1-5.4,0.2-10.8,0.2-16.2c0-2.9-0.5-5.7-2.2-8.1c-2-2.8-4.9-2.8-6.9-0.1c-1.6,2.2-2.2,4.8-2.2,7.5
	c-0.1,2,0.2,4,0.2,6c0,4.3,0,8.6,0,12.9c0,0.6,0.1,1.3,0.2,2.2c3.5-0.7,6.7-1.3,9.8-2c0.4-0.1,0.7-0.7,0.9-1.2
	C-721.3,328.3-721.4,327.9-721.4,327.6z M-716.9,258.7c0-2.2-0.6-4.2-1.7-6.1c-2.1-3.7-5.4-3.7-7.6-0.2c-1.4,2.3-1.9,4.8-1.9,7.5
	c0,6.5,0.1,13.1,0.1,19.6c0,0.5,0,1,0,1.7c0.5-0.1,0.7-0.2,0.9-0.2c3-1.3,6.1-2.7,9.1-4c0.8-0.4,1.1-0.9,1.1-1.8
	C-716.9,269.7-716.8,264.2-716.9,258.7z M-701.8,316.1c0-3.8,0.1-7.7,0-11.5c-0.1-2.5-0.8-4.7-2.5-6.6c-2.2-2.5-5.2-2.4-7.2,0.2
	c-0.9,1.2-1.5,2.8-2,4.2c-0.8,2.3-0.4,4.6-0.4,7c0.1,5.6,0,11.2,0,16.8c0,0.6,0.1,1.2,0.1,1.8c0.4,0.1,0.6,0.1,0.7,0.1
	c3.3-0.4,6.6-0.8,9.9-1.1c1-0.1,1.4-0.6,1.4-1.6C-701.8,322.3-701.8,319.2-701.8,316.1z M-698.2,244.8c-0.6-1.2-1.4-2.4-2.4-3.3
	c-1.6-1.5-3.8-1.4-5.4,0.1c-0.9,0.8-1.6,1.9-2.2,2.9c-0.9,1.8-1.3,3.8-1.2,5.8c0,6.8,0,13.7,0.1,20.5c0,0.5,0.1,1.1,0.2,1.7
	c3.6-0.4,7-0.7,10.2-2c1.7-0.7,1.7-0.6,1.7-2.4c0-4.5,0-9,0-13.5c0-0.7,0-1.4,0.1-2.1C-696.7,249.8-697,247.2-698.2,244.8z
	 M-680.1,301.4c-0.1-3-1.1-5.8-3.4-7.9c-2.2-2-4.7-1.9-6.8,0.2c-1.8,1.8-2.8,4-3,6.4c-0.2,2.3-0.1,4.6-0.1,6.9c0,5.8,0,11.5,0,17.3
	c0,1.6,0.2,1.8,1.6,1.7c3.4-0.3,6.7-0.6,10.1-1c1.5-0.2,1.6-0.3,1.6-1.8c0-3.6,0-7.3,0-10.9c0,0,0,0,0,0
	C-680,308.6-679.9,305-680.1,301.4z M-675.8,243.3c0-2.5-0.8-4.9-2.3-7c-1.1-1.5-2.5-2.7-4.6-2.6c-2.5,0.1-4,1.8-5,3.8
	c-1.4,2.7-1.8,5.6-1.6,8.6c0.1,1.2,0.2,2.4,0.2,3.7c0,5.1,0,10.2,0,15.3c0,0.6,0,1.2,0.1,1.9c0.4,0,0.6,0,0.7,0
	c3.8-1.2,7.6-2.3,11.4-3.5c0.9-0.3,1-0.9,1-1.7C-675.9,255.7-675.8,249.5-675.8,243.3z M-651.6,300.1c0-3.4-0.7-6.6-2.9-9.3
	c-3.2-4.1-8.2-3.9-11.2,0.3c-1.6,2.3-2.5,4.9-2.5,7.7c0,2.3,0.2,4.6,0.2,6.9c0,5.3,0,10.5,0,15.8c0,0.6,0.1,1.2,0.1,1.9
	c0.4,0.1,0.5,0.2,0.7,0.2c4.7-0.3,9.5-0.7,14.2-1.1c0.9-0.1,1.3-0.6,1.3-1.5c0-3.1,0-6.2,0-9.3
	C-651.8,307.7-651.6,303.9-651.6,300.1z M-649.7,237.1c-0.3-2.9-1.4-5.5-3.6-7.6c-1.2-1.2-2.6-1.9-4.4-1.9c-2.9-0.1-4.8,1.6-6.2,3.8
	c-1.6,2.5-2.3,5.2-2.2,8.2c0,2,0.2,4.1,0.2,6.1c0,4.1,0,8.2,0,12.3c0,0.7,0.1,1.3,0.1,2.2c0.7-0.1,1.1-0.1,1.6-0.2
	c4.3-1,8.6-2.1,12.9-3.2c1.6-0.4,1.6-0.4,1.6-2.1c0-3.9,0-7.9,0-11.8C-649.7,240.9-649.5,239-649.7,237.1z M-620.4,286.5
	c-3.8-4.5-9.7-4.5-13.5,0.1c-2.7,3.3-3.6,7.1-3.4,11.3c0.1,1.4,0.2,2.7,0.2,4.1c0,5.6,0,11.2,0,16.9c0,0.4,0,0.7,0,1.1
	c-0.1,1,0.4,1.4,1.4,1.3c0.8-0.1,1.6-0.2,2.4-0.2c0,0,0,0,0,0.1c4.7-0.3,9.5-0.6,14.2-0.9c1.7-0.1,1.7-0.2,1.7-2
	c0-5.2,0-10.4,0-15.6c0-1.6,0.2-3.2,0.2-4.7C-616.8,293.6-617.6,289.8-620.4,286.5z M-619.7,220.2c-3.5-3.6-8.4-3.7-12-0.2
	c-3.2,3.1-4.3,7.1-4.2,11.5c0,3.9,0.2,7.7,0.4,11.6c0,0-0.1,0-0.1,0c0,3.1,0,6.2,0,9.3c0,1.6,0.3,1.8,1.8,1.6
	c5.4-0.7,10.8-1.4,16.2-2.1c1.6-0.2,1.7-0.3,1.7-1.9c0-4.5,0-9.1,0-13.6c0-1.3,0.1-2.5,0.2-3.8C-615.4,228-616.4,223.7-619.7,220.2z
	 M-579.9,287.4c-0.7-1.4-1.6-2.8-2.7-4c-4.2-4.5-10.1-4.4-14.2,0.2c-3.3,3.6-4.4,8-4.2,12.7c0.1,3.9,0.3,7.8,0.4,11.8l-0.1,0
	c0,3,0,6,0,9c0,2,0,2.1,2.1,2c6.1-0.2,12.1-0.4,18.2-0.6c1.9-0.1,2-0.1,2-2c0-5.2,0-10.4,0-15.6c0-1,0.1-1.9,0.2-2.9
	C-578,294.4-578.2,290.7-579.9,287.4z M-469.1,259c0,4.2,0,8.4,0,12.5c0,1,0.5,1.3,1.4,1.3c1.5,0,3,0,4.4,0c1.3,0,1.5-0.2,1.5-1.5
	c0-2,0-4,0-6c0-2.1,0-4.2,0-6.3c0-0.9-0.4-1.4-1.4-1.4c-1.6,0-3.2,0-4.7,0C-468.7,257.7-469.1,258.1-469.1,259z M-457.2,305.8
	c-0.6-1.6-1.5-3.1-2.9-4.2c-2.2-1.8-5-1.8-7.1,0c-0.8,0.7-1.6,1.6-2.1,2.6c-1.6,2.8-2.1,5.8-2,9c0.1,3.7,0.2,7.3,0.4,11
	c0,0-0.1,0-0.1,0c0,2.9,0,5.8,0,8.7c0,1.8,0.1,2,2,2c3.8,0.1,7.5,0.2,11.3,0.3c1.5,0,1.7-0.2,1.7-1.7c0-5.4,0-10.8,0-16.2
	c0-1.1,0-2.2,0.1-3.2C-455.7,311.2-456.2,308.4-457.2,305.8z M-448.9,290.6c0,0.8,0.6,1,1.2,1.1c3.1,0.3,6.3,0.6,9.4,0.8
	c1,0.1,1.4-0.4,1.4-1.4c0-1.2,0-2.4,0-3.7c0,0,0,0,0,0c0-0.9,0.1-1.8,0.1-2.8c0-2.9-0.6-5.5-2.8-7.5c-1.8-1.7-4-1.9-6-0.5
	c-1.7,1.1-2.9,2.8-3.1,4.8C-449,284.4-448.9,287.5-448.9,290.6z M-438,304.9c-2.6-3.8-6.7-3.8-9.3,0.1c-1.7,2.5-2.2,5.3-2.2,8.3
	c0,3.1,0,6.1,0,9.2c0,0,0.1,0,0.1,0c0,3.8,0,7.6,0,11.3c0,1,0.3,1.5,1.4,1.5c3.4,0.1,6.7,0.2,10.1,0.3c1.8,0,1.8,0,1.8-1.8
	c0-5,0-10,0-15c0-1.6,0.1-3.3,0.2-4.9C-435.6,310.8-436.1,307.7-438,304.9z M-427.5,276.7c0,0.3,0.3,0.9,0.6,0.9
	c1.9,0.6,3.8,1,5.9,1.6c0-0.9,0-1.4,0-2c0-3.1,0-6.1,0-9.2c-0.1-4.3,0.6-3.4-3.5-4.6c-0.9-0.3-1.8-0.4-2.7-0.6
	c-0.2,0.4-0.3,0.5-0.3,0.7C-427.5,267.9-427.5,272.3-427.5,276.7z M-419.1,306.3c-2.3-3.5-6-3.6-8.3,0c-1.4,2.1-2,4.5-2,7
	c0,3.4,0,6.7,0,10.1h0.1c0,3.7,0,7.4,0,11c0,1.4,0.2,1.5,1.6,1.6c2.9,0.2,5.8,0.3,8.7,0.5c1.6,0.1,1.8,0,1.8-1.6c0-4.6,0-9.2,0-13.8
	c0-2,0.1-4.1,0.2-6.1C-416.9,311.9-417.3,308.9-419.1,306.3z M-376.3,294.6c0,0.3,0.2,0.7,0.5,0.9c0.7,0.4,1.5,0.7,2.5,1.1
	c0-0.7,0.1-1.2,0.1-1.7c0-1.8,0-3.6,0-5.3c0-2.2-0.7-3-3.1-3.3C-376.3,289.1-376.3,291.8-376.3,294.6z M-400.5,314.4
	c0-2.5-0.8-4.8-2.3-6.9c-1.6-2.2-4.5-3.2-6.8,0.3l0,0c-1.3,1.7-1.9,3.7-2.1,5.8c-0.1,1.9,0,3.9,0,5.8c0,5.3,0,10.5,0,15.8
	c0,1.5,0.1,1.6,1.5,1.7c2.6,0.3,5.3,0.5,7.9,0.7c1.3,0.1,1.6,0,1.6-1.4C-400.5,329-400.4,321.7-400.5,314.4z M-398,272.4
	c-0.6-0.2-1.1-0.6-1.7-0.9c-0.2,0.3-0.3,0.5-0.3,0.6c0,3.6,0,7.2,0.1,10.8c0,0.3,0.4,0.9,0.8,1c1.2,0.4,2.4,0.7,3.9,1.1
	c0.1-0.8,0.1-1.3,0.1-1.8c0-1.7-0.2-3.5,0-5.2C-394.7,275.4-395.5,273.5-398,272.4z M-385.1,315.9c-0.2-2.1-0.9-4.1-2.3-5.7
	c-1.4-1.6-3.3-1.6-4.6,0c-0.7,0.9-1.4,1.9-1.7,3c-0.5,2-0.9,4.1-0.9,6.2c-0.1,5.7,0.1,11.3,0.1,17c0,0.5-0.1,1,0.1,1.4
	c0.1,0.4,0.5,0.9,0.8,0.9c2.7,0.5,5.5,1,8.5,1.5c0-0.9,0.1-1.5,0.1-2.1c0-5.2,0-10.3,0-15.5C-385,320.4-385,318.1-385.1,315.9z
	 M-382.7,293.2c-0.1-1.2-0.6-2.5-1.3-3.5c-0.8-1.4-2.5-1.4-3.5-0.1c-0.5,0.7-1,1.6-1.1,2.5c-0.2,3.1-0.1,6.2-0.1,9.3
	c0,0.4,0.3,1,0.6,1.1c1.7,0.6,3.4,1.1,5.1,1.6c0.1-0.4,0.3-0.6,0.3-0.8C-382.7,299.9-382.6,296.5-382.7,293.2z M-372.3,323.9
	c0-2.3-0.5-4.5-1-6.8c-0.2-1.1-0.8-2.6-2.2-2.6c-1.5,0-1.9,1.4-2.3,2.6c-0.9,2.4-1.1,5-1,7.5c0.1,2.7,0.1,5.4,0.1,8.1
	c0,2.4-0.1,4.9-0.1,7.3c0,0.5,0.3,1.3,0.6,1.4c1.8,0.4,3.6,0.7,5.5,1c0.1-0.9,0.2-1.5,0.2-2.2C-372.4,334.8-372.2,329.3-372.3,323.9
	z M-639.1,393.7c0.7-0.4,1.5-0.7,2.3-1c-4.9,0-9.8,0-14.7,0c0.6,0.2,1.3,0.5,1.9,0.8C-646.1,393.6-642.6,393.6-639.1,393.7z
	 M-644.1,127c-5.9,2.1-11.7,4.3-17.6,6.3c-9.5,3.4-18.8,7.3-27.6,12.1c-11.5,6.2-22.4,13.4-33,21.1c-6.4,4.6-12.2,9.9-17.2,16
	c-5.6,6.8-10,14.3-13,22.6c-0.5,1.3-0.7,2.7-0.4,4c0.1,0.6,0.3,1.4,0.8,1.7c0.7,0.5,1.1-0.4,1.5-0.9c2.6-2.7,5.1-5.5,7.7-8.1
	c9.4-9.3,19.7-17.7,30.5-25.3c19.7-13.8,40.9-24.9,63.3-33.6c3.9-1.5,7.9-2.9,11.9-4.4c0.6-0.2,1.3-0.3,1.4-1.2
	c0.1-2,0.1-3.7-1.7-5.2c-1.9-1.5-3.6-3.5-5.4-5.2C-643.3,127-643.7,127-644.1,127z M-754.9,226.6c-1.3,0.3-1.7,0.7-1.4,2
	c0.8,3,1.6,5.9,2.4,8.9c0.3,1.1,0.5,2.3,0.6,3.4c0.2,4,0.2,8,0.3,11.9c0,0.3,0.1,0.6,0.2,1.2c0.6-0.5,1-0.9,1.4-1.3
	c1.8-1.8,3.5-3.6,5.4-5.3c11.8-10.7,25.2-19,39.4-26c6.3-3.1,12.7-5.8,19.2-8.4c13.1-5.3,26.6-9.4,40.3-12.6
	c14.3-3.4,28.7-6,43.1-8.7c1-0.2,1.7,0,2.3,0.8c0.7,0.8,1.5,1.6,2.3,2.3c0.1-0.1,0.2-0.1,0.3-0.2c0-1.8,0-3.5,0-5.3
	c0-0.4-0.2-0.8-0.4-1.1c-1-1.5-2-3-3-4.4c-0.3-0.4-1-0.8-1.5-0.8c-1.3,0-2.2-0.3-2.3-1.9c-1.2,0.2-2.2,0.3-3.2,0.4
	c-2.4,0.4-2.4,0.4-3.3-1.8c-4.2-10.4-8.4-20.9-12.5-31.3c-0.9-2.3-2.1-4.4-3.7-6.3c-1.2-1.3-1.2-1.4-2.8-0.8
	c-6.7,2.4-13.5,4.7-20.1,7.4c-22.4,9.2-43.3,21-62.8,35.5c-12,9-23.3,18.8-33.5,29.8c-1.1,1.2-1.4,2.3-1.1,3.7
	c0.4,1.5-0.3,2.6-1.3,3.6c-0.3,0.3-0.7,0.6-1,0.9c-1.6,1.5-1.7,1.8-0.5,3.8C-753.3,226.3-754.1,226.4-754.9,226.6z M-680.3,179.2
	c0,3.4,0,6.8,0,10.2c0,1.3-0.5,2.1-1.7,2.5c-1.8,0.7-3.6,1.6-5.7,2.4c-0.1-0.7-0.2-1.1-0.2-1.6c0-3.6,0-7.2,0-10.9
	c0-0.9,0.3-1.5,1.2-1.9c2-0.8,4-1.7,6.3-2.7C-680.3,178.2-680.3,178.7-680.3,179.2z M-725,215.2c0-3.5,0-6.9,0-10.4
	c0-1,0.3-1.8,1.1-2.4c1.5-1.1,2.9-2.2,4.5-3.4c0.1,0.5,0.1,0.8,0.1,1.1c0,3.6,0,7.2,0,10.9c0,0.6-0.2,1.3-0.6,1.6
	c-1.5,1.3-3.1,2.6-5,4C-724.9,215.9-725,215.6-725,215.2z M-740.7,221.3c0,2.4,0,4.8,0,7.2c0,1.1-0.3,2-1.1,2.7
	c-0.9,0.9-1.6,1.8-2.7,3c-0.1-0.8-0.2-1.2-0.2-1.6c0-3.3,0-6.6,0-9.9c0-1.1,0.3-2,1.1-2.7c0.9-0.9,1.7-1.8,2.5-2.7
	c0.1,0,0.3,0.1,0.4,0.1C-740.7,218.7-740.7,220-740.7,221.3z M-373.4,356.6C-373.4,356.6-373.4,356.6-373.4,356.6
	C-373.4,356.6-373.4,356.6-373.4,356.6z M-409.5,307.9C-409.5,307.9-409.6,307.9-409.5,307.9C-409.6,307.9-409.5,307.9-409.5,307.9z
	"/>
<linearGradient id="SVGID_00000183242413165737471610000011918245530391672449_" gradientUnits="userSpaceOnUse" x1="876.1171" y1="392.2155" x2="876.1171" y2="23.4613">
	<stop  offset="0" style="stop-color:#FFD000"/>
	<stop  offset="0.2237" style="stop-color:#EC9817"/>
	<stop  offset="0.4918" style="stop-color:#D65C30"/>
	<stop  offset="0.7201" style="stop-color:#C72F43"/>
	<stop  offset="0.8966" style="stop-color:#BE144E"/>
	<stop  offset="1" style="stop-color:#BA0A52"/>
</linearGradient>
<path style="fill:url(#SVGID_00000183242413165737471610000011918245530391672449_);" d="M965.1,98.2c5.2,3.5,10.4,6.8,15.4,10.4
	c5.1,3.7,5,4.2,0.1,8.8c-1,1-1.7,2.5-2.1,4c-1.9,6.9-3.9,13.7-5.1,20.7c-0.6,3.2,1.5,7,0.8,10.2c-0.6,2.7-4.2,4.6-5.1,7.3
	c-2.3,7.1-4.1,14.3-5.4,21.6c-0.6,3.3,1.4,7,0.8,10.2c-0.6,2.7-4.1,4.7-5,7.5c-2.3,7.4-3.8,15-5.6,22.6c-0.4,1.6-1.1,3.6-0.5,4.8
	c2.5,4.9,2.4,8.5-3.2,11c-0.7,0.3-0.6,2.4-0.9,3.6c-1.8,7.2-3.9,14.4-5.1,21.7c-0.6,3.5,1.2,7.5,0.7,11.1c-0.5,3.1-5.2,3.8-5.7,8.2
	c-0.8,6.7-3.6,13.1-4.7,19.8c-0.6,3.6,1,7.5,1,11.2c0,4.1-6.4,3.1-6.6,8.5c-0.2,6.3-3.3,12.5-4.3,18.8c-0.5,3.2,1.7,7,1,10.1
	c-0.6,2.7-4.3,4.7-5.1,7.4c-2.5,8.3-4.2,16.9-6.4,26.2c3.4,0.2,6.2,0.6,9,0.6c3,0,5.1,0.6,5,4.3c-0.1,3.3-2.3,3.4-4.7,3.4
	c-4.2,0-8.5,0-12.7,0c-44.5,0-89.1,0-133.6,0c-2.3,0-4.6,0.2-6.8-0.4c-1.1-0.3-2.3-2.2-2.3-3.4c0-1.2,1.1-2.8,2.2-3.6
	c0.9-0.6,2.5-0.3,3.8-0.3c6.7-0.3,6.7-0.3,8.4-7.3c4-16.4,8.1-32.7,11.7-49.1c0.8-3.5-1.1-7.6-0.2-10.9c0.9-3.1,4.7-4.7,5.3-8.8
	c1-6.7,3.4-13.2,4.6-19.8c0.6-3.2-1.1-6.9-0.3-10c0.7-2.8,4.1-4.9,4.9-7.8c2.2-7.4,3.8-15.1,5.2-22.7c0.5-2.9-1.3-6.4-0.5-9.2
	c0.7-2.8,4.1-4.9,4.9-7.7c2.3-8.1,4-16.3,5.8-24.5c0.2-1.1-0.2-2.4-0.6-3.5c-0.8-2.5-1.9-5,1.7-6.3c0.3-0.1,0.6-0.3,0.7-0.6
	c3.8-11.2,7.6-22.3,7.2-34.4c-0.1-1.8-0.2-4.7,0.7-5.2c3.8-2.1,3.9-5.7,4.7-9.1c1.4-6.3,2.2-12.9,4.5-18.8c1.5-3.9-2.2-7.4-0.2-9.9
	c2-2.5,3.9-5,4.7-8c1.9-7.5,3.6-15.1,5.3-22.7c0.2-0.9,0.6-1.9,0.5-2.8c-0.1-2.1-1.5-5.2-0.5-6.1c1.6-1.6,4.5-2.4,6.9-2.8
	c3.5-0.6,7.1-0.8,10.7-0.6c4.2,0.3,5.8-1.9,6.6-5.5c1.9-8.5,3.8-17,5.9-25.5c1.4-5.8,1.5-6.1,7.5-5.9c9.7,0.4,19.5,0.8,29,2.3
	c16.7,2.7,32.5,8.7,47.3,17c6.8,3.8,6.7,3.8,5,11.3C969.3,79.1,967.3,88.5,965.1,98.2z M791.1,384.4c6.5,0,12.3-0.4,18,0.1
	c4.8,0.5,6.3-2.2,7.2-5.9c2.6-10.6,5.1-21.3,7.4-32c0.4-1.8,0.2-3.9-0.4-5.6c-1.8-5.3-5.6-7.9-11-7.7c-5.5,0.1-9.5,3.1-11,9.1
	c-3,11.5-5.7,23.1-8.5,34.7C792.3,379.2,791.8,381.3,791.1,384.4z M820.8,384.3c6.9,0,13-0.1,19.1,0.1c2.7,0.1,4.3-1,5-3.5
	c2.3-9.1,4.6-18.2,6.7-27.3c1-4.4-0.3-8.4-4.1-11.2c-7.2-5.5-16.2-1.9-18.6,7.7C826.1,360.9,823.7,372,820.8,384.3z M850.2,384.3
	c5.6,0,10.4,0,15.3,0c8.1,0,8.2,0,10.1-8.5c1.4-6.3,3.1-12.6,3.6-18.9c0.4-5.9-3.6-9.4-9.6-9.9c-6.5-0.5-10.2,1.8-12.1,8.5
	C854.8,364.8,852.7,374.2,850.2,384.3z M903.2,384c1.4-5.5,2.9-11.1,4-16.7c1.4-6.8-2.5-12.5-8.9-13.8c-5.9-1.2-11.4,2.3-13.2,8.7
	c-1.9,7-3.5,14.2-5.3,21.8C887.9,384,895.3,384,903.2,384z M893.4,249.9c1.8-6.7,3.3-12.2,4.6-17.9c0.6-2.5,1.1-5.2,0.7-7.7
	c-0.4-1.9-2.1-4.6-3.6-4.9c-1.6-0.4-3.9,1.5-5.7,2.7c-0.6,0.4-0.6,1.8-0.9,2.7c-1.8,7.1-3.7,14.3-5.6,21.8
	C886.5,247.8,889.5,248.7,893.4,249.9z M941.7,60.1c0.1-4.3-0.3-6.9-3.6-7.5c-3.2-0.6-5.7,0.2-6.6,3.9c-1.4,6-3.2,11.9-4.5,17.9
	c-0.4,1.7-0.4,4.7,0.4,5.1c2.5,1.2,5.4,1.6,8.2,2.1c0.4,0.1,1.2-0.7,1.3-1.2C938.8,73.1,940.4,65.9,941.7,60.1z M917.1,77.6
	c1.6-5.9,3-11.1,4.4-16.3c0.7-2.5,1.3-5,1.8-7.5c0.6-3.1-1.1-5.3-3.7-5.9c-1.7-0.4-4.1,0.8-5.7,2c-1.1,0.8-1.4,2.8-1.8,4.3
	c-1.8,6.8-3.6,13.6-5.5,20.8C910,75.9,913,76.7,917.1,77.6z M913.9,166c2.1-8.3,4-15.8,5.7-23.3c0.7-3.2-2-7.6-4.7-7.3
	c-2.1,0.3-5.1,2.3-5.6,4.2c-2.1,7.1-3.3,14.5-4.8,21.8c-0.1,0.5,0.5,1.1,0.8,1.8C907.6,164,910.1,164.7,913.9,166z M912.1,254.9
	c1.9-7.6,4-15,5.6-22.5c0.9-4.3-0.9-7.1-4-7.7c-2.9-0.6-5.5,1.5-6.8,5.6c-0.2,0.6-0.2,1.3-0.3,1.9c-1.2,5-2.4,10-3.7,15
	c-0.9,3.5,0.3,5.6,4,6.3C908.4,253.8,909.9,254.3,912.1,254.9z M859.7,306.7c0.2-4.3-0.3-7.3-3.8-8.1c-3.6-0.8-5.4,1.5-6.2,4.6
	c-1.8,6.5-3.5,13-5.1,19.6c-0.7,2.8,1,4.4,3.6,4.6c2.6,0.2,6.1,2.4,7.2-2.1C856.9,318.7,858.4,312.1,859.7,306.7z M874.7,199.6
	c1.5,0.8,2.6,1.6,3.8,2c5.3,1.8,6.4,1.3,7.7-3.7c1.6-5.9,3-11.9,4.3-17.9c0.7-3.2-0.6-5.8-3.7-7.1c-2.4-1-6.3,1.6-7.2,4.9
	C877.8,185,876.4,192.3,874.7,199.6z M881.5,334.9c2.4,0.8,4.8,2,7.2,2.3c1.1,0.2,3.2-1.1,3.5-2c2-7.1,3.9-14.3,5.2-21.6
	c0.3-1.5-1.7-4.2-3.4-5c-2.5-1.3-5.2-0.3-6.4,2.5c-0.9,2.1-1.6,4.2-2.1,6.4C884.1,323.2,882.9,328.8,881.5,334.9z M872.8,333.7
	c2.1-8.4,4.1-15.9,5.9-23.3c0.8-3.4-1-5.6-3.9-7c-2.4-1.1-5.6,0.5-6.6,4.1c-1.9,7.2-3.2,14.5-4.7,21.7c-0.1,0.5,0.5,1.1,0.9,1.8
	C866.7,331.8,869.1,332.5,872.8,333.7z M845.4,238.2c10.2,3.9,10.4,1.6,12.1-5.3c1.2-4.7,2.4-9.4,3.5-14.1c0.7-3.1,0.2-5.9-3-7.4
	c-2.5-1.2-6.6,0.9-7.5,4.5C848.6,223.3,847.1,230.8,845.4,238.2z M874.4,244.4c2.1-8,4.2-15.4,6-22.9c0.7-3.2-1.5-6.2-4.3-6.5
	c-3.3-0.4-5.7,1.1-6.5,4.5c-1.8,7.5-3.5,15-5.5,23.3C867.7,243.2,870.8,243.8,874.4,244.4z M894.7,116.2c2.3,0.9,4.6,2.1,7,2.8
	c2,0.6,3.9-0.1,4.4-2.5c1.5-7.2,3.1-14.4,4.4-21.6c0.4-2.3-0.4-4.9-3.1-5.1c-2-0.1-4.4,0.8-5.9,2.1c-1.3,1.1-1.9,3.3-2.4,5.2
	C897.6,103.2,896.2,109.4,894.7,116.2z M930.5,261.2c1.6-6.4,3-11.7,4.2-17c0.6-2.5,1-5.1,1.1-7.6c0.1-2.8-1.3-5.2-4.2-5.7
	c-3.1-0.6-4.8,1.4-5.5,4.2c-1.4,5.6-2.8,11.3-4.2,16.9c-1.3,5.7-1.3,5.7,4.6,7.8C927.6,260.2,928.8,260.6,930.5,261.2z M942.6,130.7
	c2-8,3.9-15.4,5.5-22.9c0.8-3.9-1.7-7.7-5-8c-3.7-0.2-4.8,2.4-5.5,5.4c-1.6,7.1-3.3,14.1-5.1,21.4
	C936.2,128.1,939.2,129.3,942.6,130.7z M864.4,287.3c2-8.4,3.9-15.8,5.5-23.3c0.8-3.6-1.5-7.9-3.9-7.5c-2.2,0.4-4.4,2.3-5.9,4.1
	c-1.1,1.4-1.3,3.6-1.8,5.5c-1.4,5.9-2.7,11.7-4.2,17.9C857.2,285,860.2,286,864.4,287.3z M887,72.6c11,2.4,11,2.4,13.1-6.7
	c1.2-5,2.5-10.1,3.2-15.2c0.2-1.5-1.1-3.9-2.4-4.6c-1.3-0.7-3.9-0.5-5.1,0.4c-1.7,1.3-3,3.4-3.6,5.5C890.3,58.9,888.7,65.8,887,72.6
	z M886,115.4c1.9-8.3,3.5-15.4,5.3-22.5c0.7-2.7-0.4-4.2-2.3-5.7c-2.3-1.7-4.3-0.4-6.1,0.9c-0.9,0.7-1.7,2-2,3.1
	c-2,7.6-3.9,15.2-6,23.6C879.1,115.1,882.2,115.2,886,115.4z M929.8,100.9c0.1-3.9-0.7-6.6-4.4-7.2c-3.1-0.5-4.9,1.3-5.7,4.1
	c-1.8,6.5-3.6,13.1-5.3,19.7c-0.9,3.5,1.6,4.5,4.4,5.1c2.6,0.5,5.4,1,6.3-2.5C926.9,113.5,928.4,106.9,929.8,100.9z M852.5,155.7
	c0.6-0.4,3.8-1.2,4.3-2.9c2-6.4,3.5-13.1,4.5-19.7c0.3-1.7-1.1-4.5-2.6-5.4c-2.6-1.7-4.9,0.3-6.5,2.4c-0.8,1-1.4,2.2-1.7,3.5
	c-1.5,5.9-3,11.8-4.3,17.8C845.6,154.7,846.7,155.6,852.5,155.7z M912.2,209.7c2.4,1,4.7,2.2,7,2.8c2.5,0.6,4.3-0.1,4.5-3.3
	c0.1-1.9,1.1-3.7,1.5-5.5c0.9-5,2-10,2.5-15.1c0.3-2.8-1.5-5.3-4.5-5.1c-1.8,0.2-3.6,2-5.1,3.4c-0.8,0.8-1.1,2.3-1.4,3.5
	C915.3,196.7,913.8,202.9,912.2,209.7z M940.4,220.5c1.6-6,3.2-10.9,4.3-15.9c0.7-3.1,0.9-6.4,0.9-9.6c0-2.9-1.8-5.4-4.7-5.1
	c-1.7,0.2-4.2,2.2-4.7,3.9c-2.2,7.3-3.8,14.9-5.7,22.8C933.7,217.9,936.6,219,940.4,220.5z M863.5,198.8c0.5-0.4,2.5-1.1,2.8-2.2
	c1.9-7.2,3.6-14.4,4.8-21.7c0.2-1.3-1.4-3.8-2.8-4.4c-1.4-0.6-4-0.2-5.2,0.8c-1.6,1.4-2.7,3.6-3.2,5.7c-1.4,5-2.5,10-3.6,15.1
	C855.2,197.1,857,199.1,863.5,198.8z M901.9,296.5c2.1-8.1,4.1-15.4,5.8-22.8c0.8-3.3-1.5-7-4.5-7.5c-3.6-0.6-5.3,2.1-6.2,4.8
	c-1.3,4.3-2,8.7-3.1,13C891.6,293.4,891.5,293.3,901.9,296.5z M932.6,172.3c1.9-8.5,3.6-15.7,5.1-22.9c0.7-3.4,0-6.6-3.9-7.8
	c-2.7-0.8-5,1.1-6.3,5.7c-1.8,6.8-3.3,13.7-5.1,20.9C925.7,169.5,928.6,170.7,932.6,172.3z M903.6,207.5c2-7.8,4-14.9,5.6-22.1
	c0.9-4-0.7-7.1-3.6-7.8c-3.1-0.8-5.8,1-6.8,5.1c-1.8,7.1-3.4,14.3-5.3,22C896.9,205.6,899.9,206.5,903.6,207.5z M890.5,160
	c3.6,0.6,5.3-1.2,5.9-4.6c0.6-3.5,1.5-6.9,2.3-10.3c0.6-2.8,1.8-5.7,1.7-8.4c-0.1-1.8-1.6-4.3-3.1-5.2c-2.6-1.5-5,0.2-6.3,2.7
	c-0.8,1.4-1.3,2.9-1.7,4.5c-1.3,5-2.6,10-3.7,15C884.3,158.7,885.3,159.9,890.5,160z M954.4,89.9c2.1-8.1,4.3-15.7,6.1-23.4
	c0.7-3.1-2-7.1-4.8-7.4c-3.6-0.4-5.1,2.3-6,5.1c-1.5,5.2-2.6,10.6-4,15.8c-1.1,4.2,0.1,6.9,4.4,8.1
	C951.4,88.4,952.5,89.1,954.4,89.9z M845.1,283c2.1-8,4.3-15.7,6.2-23.4c0.7-3-1.6-7-4-6.7c-2.2,0.3-5.6,1.8-6.1,3.5
	c-2.4,7.5-3.9,15.4-5.8,23.2C839.1,281,841.8,281.9,845.1,283z M842.4,213.6c-1-1.3-2-3.8-3.6-4.3c-1.7-0.5-4.1,0.8-6,1.8
	c-1,0.5-1.6,2.1-1.9,3.3c-1.5,6-2.8,12-4.2,18c-0.8,3.2,1.5,3.8,3.7,4.5c2.5,0.8,5.6,1.8,6.6-1.6
	C839.1,228.5,840.5,221.5,842.4,213.6z M835.5,324.5c2-8.8,3.6-16.3,5.6-23.7c0.9-3.4-0.6-5-3.3-5.9c-2.7-0.9-5.2-0.1-6.6,2.6
	c-0.6,1.1-0.7,2.5-1,3.7c-1.6,6.6-3.2,13.1-4.9,20.1C828.3,322.2,831.3,323.2,835.5,324.5z M888.8,269.1c0.2-4.2-0.6-6.7-3.6-7.4
	c-3.5-0.9-5.6,1.1-6.4,4.3c-1.8,6.5-3.6,13.1-5.1,19.7c-0.7,2.8,1,4.2,3.6,4.6c2.5,0.4,5.7,1.6,6.7-1.8
	C885.9,281.7,887.4,274.7,888.8,269.1z M960.2,138.8c2.1-7.8,4.1-15.2,5.9-22.7c0.2-0.9,0.3-2.2-0.2-2.8c-1.5-1.9-3-4.7-5-5.2
	c-3-0.9-4.4,2.3-5.1,4.7c-1.6,5.6-2.8,11.3-4.2,16.9c-0.7,2.8-0.2,5.1,2.7,6.4C956.1,136.9,957.8,137.7,960.2,138.8z M816.4,276
	c2.9,0.9,4.6,1.9,6.5,2c1.3,0.1,3.5-0.7,3.8-1.5c2-7.4,4.1-14.9,5.3-22.5c0.6-3.4-4.1-5.7-7-3.6c-1.7,1.2-3.3,3.2-3.9,5.2
	C819.3,262.2,818,268.8,816.4,276z M920.6,301.6c1.8-7,3.5-13.5,5.1-20.1c0.4-1.5,0.6-3.5,0-4.8c-1-1.9-2.6-4.3-4.3-4.5
	c-1.5-0.2-3.7,1.9-5.1,3.4c-1,1.1-1.3,2.9-1.7,4.5c-0.9,3.8-1.5,7.6-2.3,11.3c-1.7,7.5-1.7,7.5,5.4,9.6
	C918.2,301.2,918.8,301.3,920.6,301.6z M816.5,320.1c2.1-8.2,4.1-15.3,5.7-22.5c0.7-3.1-0.2-5.9-3.8-6.7c-3.6-0.8-5.7,1.2-6.5,4.3
	c-1.9,7.1-3.5,14.3-5.2,21.8C809.9,317.9,812.6,318.8,816.5,320.1z M836,194.9c3.1,0.7,5.3,1.6,7.4,1.6c1.2,0,3.3-1.3,3.6-2.4
	c1.8-6.8,3.3-13.8,4.7-20.7c0.5-2.5-0.8-4.9-3.3-5c-1.9-0.1-4.1,1.2-5.7,2.5c-1.1,0.9-1.7,2.8-2.1,4.3
	C839.1,181.3,837.7,187.6,836,194.9z M900,340.5c3.6,0.5,5.5,1.1,7.3,0.9c1.4-0.1,3.6-1.1,3.9-2.1c1.9-6.5,3.5-13.1,4.8-19.8
	c0.7-3.4-1.5-5.7-4.5-6.6c-3.1-0.9-4.8,1.5-5.5,4.1C903.9,324.6,902.1,332.1,900,340.5z M950.3,179.5c1.1-4.1,2-7.2,2.8-10.3
	c1.1-4,2.4-8,3.2-12.1c0.7-3.5-2.2-7.9-5.2-8.2c-3.9-0.4-4.5,3-5.3,5.7c-1.5,5.3-2.7,10.6-4,16c-0.8,3.2-0.1,5.7,3.4,6.9
	C946.7,177.9,948.1,178.6,950.3,179.5z M865.3,155.2c2.6,0.8,5,1.9,7.4,2.2c1.2,0.1,3.3-1.2,3.6-2.3c1.8-6.8,3.4-13.8,4.8-20.7
	c0.5-2.3,0.2-4.7-2.7-5.4c-2.8-0.7-5.2,0-6.7,2.5c-0.7,1.1-1.2,2.3-1.5,3.5C868.5,141.5,867,148.1,865.3,155.2z M861,115
	c3.3,0.5,5.4-0.5,6.1-4.3c1-5,2.6-10,3.7-15c1.2-5.4,0.3-8.6-2.4-9.3c-2.5-0.6-6.2,2.2-7.9,6c-0.3,0.6-0.4,1.2-0.6,1.8
	c-1.3,5-2.7,9.9-3.9,14.9C855.1,113.5,856.3,114.9,861,115z M931.8,35c16.1,4.2,31.1,11.2,45.8,19.1c2.2-5.1,0.4-7.3-3.3-9.4
	c-26.5-14.9-54.9-21.7-85.2-21.2c-5.1,0.1-6.9,2.2-7.1,7.7C899.3,30.9,915.7,30.8,931.8,35z"/>
</svg>
