<?xml version="1.0" encoding="utf-8"?>
<!-- Generator: Adobe Illustrator 26.0.1, SVG Export Plug-In . SVG Version: 6.00 Build 0)  -->
<svg version="1.1" id="Livello_1" xmlns="http://www.w3.org/2000/svg" xmlns:xlink="http://www.w3.org/1999/xlink" x="0px" y="0px"
	 viewBox="0 0 1800 1709" style="enable-background:new 0 0 1800 1709;" xml:space="preserve">
<style type="text/css">
	.st0{fill:#FFFFFF;}
</style>
<image style="overflow:visible;" width="97" height="95" xlink:href="../../../OneDrive/Desktop/Cattura5.PNG"  transform="matrix(6.4865 0 0 6.4865 -870.5515 353.7314)">
</image>
<g>
	<path class="st0" d="M342.2,566.1c0,0-252.5-57.9-294.5-94.7s962.5-405,1004.6-405c42.1,0-114.8,862.6-138.9,867.8
		c-24.1,5.3-302.9-186.5-302.9-186.5L447.4,886.9l10.5-278.8l455.4-405L342.2,566.1z"/>
	<path class="st0" d="M1450.7,687.7c0,0-106.6-24.4-124.4-40c-17.8-15.6,406.6-171.1,424.4-171.1c17.8,0-48.5,364.4-58.7,366.6
		s-128-78.8-128-78.8l-68.9,58.8l4.4-117.8L1692,534.4L1450.7,687.7z"/>
	<path class="st0" d="M920.4,1405.8c0,0-166.5-38.2-194.2-62.4c-27.7-24.3,634.7-267.1,662.4-267.1s-75.7,568.8-91.6,572.3
		c-15.9,3.5-199.7-123-199.7-123l-107.5,91.8l6.9-183.8l300.3-267.1L920.4,1405.8z"/>
</g>
</svg>
